<svg width="444" height="538" viewBox="0 0 444 538" fill="none" xmlns="http://www.w3.org/2000/svg">
<path d="M91.7126 130.574C72.4351 208.714 53.9343 372.957 134.152 404.802" stroke="#ECECEC" stroke-width="9"/>
<path d="M378.644 250.919C336.412 319.432 232.215 447.732 153.281 412.826" stroke="#ECECEC" stroke-width="9"/>
<path fill-rule="evenodd" clip-rule="evenodd" d="M376.889 166.063C394.384 208.835 394.171 256.805 376.297 299.421L370.949 297.178C369.223 280.372 358.606 265.008 341.929 258.013C325.252 251.019 306.851 254.212 293.653 264.758L252.35 247.435C250.624 230.629 240.006 215.265 223.33 208.27C206.653 201.275 188.252 204.468 175.054 215.015L137.578 199.297C135.853 182.491 125.235 167.127 108.558 160.132C91.8815 153.138 73.4804 156.331 60.2826 166.878L54.9345 164.634C72.8083 122.019 106.879 88.2495 149.651 70.7546C192.423 53.2596 240.394 53.4725 283.009 71.3463C325.624 89.22 359.394 123.291 376.889 166.063Z" fill="url(#paint0_linear_25_209)"/>
<rect x="217.592" y="205.864" width="12.4459" height="207.431" transform="rotate(22.7542 217.592 205.864)" fill="#ECECEC"/>
<path d="M360.361 244.218C363.943 245.672 368.048 243.953 369.272 240.286C373.091 228.837 375.004 216.822 374.919 204.722C374.817 190.285 371.873 176.009 366.254 162.71C360.636 149.411 352.452 137.349 342.172 127.212C333.556 118.716 323.607 111.712 312.736 106.47C309.254 104.791 305.16 106.536 303.705 110.118L303.002 111.85C301.548 115.432 303.287 119.492 306.751 121.208C315.699 125.642 323.898 131.48 331.03 138.512C339.826 147.186 346.828 157.507 351.636 168.886C356.444 180.266 358.963 192.481 359.05 204.834C359.12 214.85 357.591 224.797 354.532 234.304C353.349 237.984 355.047 242.061 358.629 243.515L360.361 244.218Z" fill="white" fill-opacity="0.39"/>
<path d="M288.485 113.927C292.183 112.799 294.287 108.877 292.926 105.258C292.437 103.958 291.923 102.666 291.384 101.385C289.887 97.8204 285.663 96.417 282.201 98.1382L280.527 98.9705C277.066 100.692 275.681 104.885 277.14 108.465C277.335 108.943 277.525 109.422 277.712 109.902C279.112 113.506 283 115.601 286.697 114.473L288.485 113.927Z" fill="white" fill-opacity="0.39"/>
<path d="M160.084 90.2742C159.393 86.4705 155.742 83.9249 151.99 84.8566C137.905 88.3541 124.628 94.612 112.94 103.292C101.252 111.972 91.4228 122.872 84.0027 135.344C82.0261 138.667 83.4074 142.898 86.8489 144.659L88.5131 145.511C91.9546 147.272 96.1501 145.894 98.1623 142.593C104.448 132.282 112.671 123.258 122.401 116.032C132.131 108.807 143.147 103.543 154.835 100.507C158.577 99.5351 161.109 95.9172 160.418 92.1135L160.084 90.2742Z" fill="#0C88B4" fill-opacity="0.52"/>
<circle cx="141.37" cy="409.646" r="87.4857" transform="rotate(22.7542 141.37 409.646)" fill="white"/>
<path fill-rule="evenodd" clip-rule="evenodd" d="M161.288 347.118C158.041 346.152 155.129 345.439 152.757 345.028C152.428 344.971 151.858 344.87 151.491 344.804C149.878 344.515 143.388 343.939 143.206 344.069C143.147 344.112 143.014 344.111 142.911 344.068C142.809 344.025 142.399 343.997 142.002 344.006C141.604 344.015 141.04 344.024 140.748 344.026C139.197 344.035 136.137 344.197 135.107 344.325C134.757 344.369 134.079 344.445 133.601 344.494C133.123 344.543 132.26 344.656 131.682 344.745C131.105 344.833 130.453 344.928 130.234 344.956C130.014 344.983 129.792 345.028 129.739 345.054C129.686 345.081 128.94 345.239 128.08 345.407C127.22 345.575 126.36 345.77 126.17 345.84C125.979 345.91 125.774 345.947 125.713 345.922C125.653 345.896 125.398 345.959 125.147 346.062C124.896 346.165 124.65 346.231 124.599 346.21C124.549 346.189 124.308 346.241 124.065 346.326C123.822 346.411 123.258 346.586 122.812 346.714C122.366 346.843 121.897 346.986 121.769 347.032C121.642 347.079 121.03 347.277 120.41 347.472C118.954 347.93 114.109 349.912 112.749 350.605C112.17 350.901 111.595 351.188 111.472 351.244C111.348 351.301 110.913 351.527 110.505 351.748C110.097 351.969 109.572 352.239 109.339 352.349C109.106 352.459 108.898 352.59 108.877 352.641C108.856 352.691 108.651 352.814 108.422 352.914C108.193 353.014 107.91 353.162 107.793 353.244C107.264 353.612 105.494 354.718 105.284 354.811C105.156 354.868 105.03 354.966 105.004 355.028C104.978 355.091 104.807 355.214 104.625 355.303C104.442 355.392 104.15 355.571 103.976 355.701C103.801 355.832 103.278 356.213 102.813 356.548C101.966 357.159 101.49 357.525 100.57 358.27C100.299 358.489 100.035 358.684 99.983 358.704C99.8112 358.769 96.8925 361.364 95.826 362.4C95.6169 362.603 95.2083 362.992 94.9183 363.265C94.6282 363.537 94.3661 363.819 94.3357 363.891C94.3053 363.964 94.1873 364.102 94.0734 364.198C93.9595 364.295 93.7431 364.492 93.5927 364.637C93.1685 365.045 90.6453 367.946 90.3186 368.402C90.1583 368.625 89.7228 369.191 89.351 369.658C88.9791 370.125 88.5295 370.719 88.3518 370.977C84.4682 376.615 83.2324 378.835 80.9497 384.275C78.8833 389.199 78.0638 391.824 77.1135 396.561C76.5749 399.247 76.5563 399.351 76.4153 400.5C76.3424 401.093 76.2444 401.8 76.1972 402.071C76.101 402.623 75.7997 406.456 75.8061 407.044C75.8083 407.253 75.8192 407.546 75.8301 407.695C75.8411 407.844 75.8251 408.025 75.7948 408.097C75.7644 408.17 75.747 408.554 75.7561 408.952C75.7652 409.349 75.774 409.913 75.7756 410.205C75.7839 411.692 75.9779 415.593 76.0519 415.761C76.0744 415.812 76.1201 416.137 76.1534 416.484C76.2669 417.662 76.3402 418.258 76.4978 419.29C76.5843 419.857 76.6778 420.5 76.7055 420.72C76.733 420.939 76.7735 421.16 76.7952 421.211C76.817 421.261 76.9858 422.066 77.1703 422.998C77.3549 423.931 77.5551 424.788 77.6153 424.903C77.6755 425.019 77.7024 425.167 77.675 425.232C77.6476 425.297 77.7092 425.556 77.8118 425.806C77.9143 426.057 77.9809 426.304 77.9597 426.354C77.9386 426.405 77.9908 426.645 78.0757 426.888C78.1607 427.132 78.3353 427.696 78.4639 428.142C78.5924 428.587 78.7357 429.057 78.7823 429.184C78.8287 429.312 79.0265 429.923 79.2218 430.543C79.6802 431.999 81.6618 436.844 82.3552 438.204C82.6505 438.783 82.938 439.358 82.9942 439.482C83.0503 439.605 83.2769 440.04 83.4977 440.448C83.7185 440.857 83.9891 441.381 84.099 441.614C84.2089 441.847 84.3401 442.055 84.3906 442.077C84.4411 442.098 84.5664 442.32 84.669 442.571C84.7716 442.822 84.9051 443.048 84.9657 443.073C85.0262 443.099 85.1442 443.271 85.2279 443.455C85.3117 443.64 85.6497 444.202 85.9792 444.704C86.3088 445.207 86.5778 445.673 86.577 445.741C86.5764 445.809 86.6467 445.894 86.7335 445.931C86.8203 445.967 86.964 446.146 87.0526 446.329C87.1414 446.512 87.3207 446.804 87.4512 446.978C87.5816 447.152 87.9677 447.683 88.3092 448.156C88.6507 448.63 89.1753 449.325 89.4749 449.701C89.7746 450.076 90.1954 450.613 90.4101 450.894C91.0406 451.718 93.069 454.015 94.15 455.127C94.3532 455.337 94.7422 455.745 95.0144 456.035C95.2866 456.325 95.5933 456.598 95.6959 456.641C95.7986 456.684 95.8919 456.778 95.9032 456.85C95.9379 457.07 100.92 461.317 102.205 462.223C102.494 462.426 102.965 462.762 103.252 462.97C104.007 463.517 105.514 464.525 106.615 465.22C107.513 465.786 108.302 466.24 111.006 467.745C112.458 468.554 119.522 471.514 121.191 472.013C124.824 473.1 127.276 473.707 129.91 474.171C130.22 474.226 130.79 474.326 131.176 474.395C132.163 474.569 133.536 474.723 136.156 474.953C138.309 475.142 138.83 475.169 139.445 475.123C139.593 475.112 139.775 475.128 139.847 475.159C139.919 475.189 140.304 475.206 140.702 475.197C141.099 475.188 141.663 475.179 141.955 475.178C143.506 475.169 146.566 475.007 147.596 474.879C147.947 474.835 148.625 474.759 149.103 474.71C149.58 474.66 150.444 474.547 151.021 474.459C151.598 474.371 152.247 474.274 152.463 474.245C152.679 474.216 153.013 474.139 153.205 474.075C153.398 474.01 153.626 473.987 153.713 474.023C153.8 474.06 153.91 474.05 153.958 474.002C154.006 473.954 154.527 473.819 155.116 473.702C155.706 473.585 156.344 473.432 156.534 473.363C156.724 473.293 156.93 473.257 156.99 473.282C157.051 473.307 157.305 473.244 157.556 473.142C157.807 473.039 158.054 472.973 158.104 472.994C158.155 473.015 158.395 472.962 158.638 472.876C158.881 472.79 159.424 472.629 159.844 472.517C160.265 472.406 160.733 472.263 160.885 472.2C161.036 472.136 161.669 471.925 162.29 471.73C163.75 471.274 168.594 469.292 169.955 468.595C170.535 468.298 171.134 468.006 171.287 467.945C171.439 467.884 171.873 467.658 172.251 467.443C172.629 467.227 173.13 466.962 173.363 466.853C173.597 466.744 173.805 466.613 173.827 466.563C173.848 466.512 174.052 466.389 174.281 466.29C174.51 466.19 174.793 466.042 174.911 465.96C175.39 465.626 177.206 464.492 177.521 464.33C177.706 464.235 177.877 464.112 177.9 464.057C177.923 464.002 178.047 463.909 178.176 463.85C178.304 463.791 178.552 463.635 178.727 463.504C178.902 463.373 179.425 462.991 179.89 462.655C180.737 462.045 181.214 461.679 182.134 460.934C182.404 460.715 182.668 460.52 182.72 460.5C182.892 460.435 185.811 457.84 186.877 456.803C187.086 456.6 187.495 456.211 187.785 455.939C188.075 455.667 188.337 455.385 188.368 455.312C188.398 455.24 188.516 455.102 188.63 455.005C189.1 454.607 189.453 454.223 190.856 452.579C192.564 450.579 193.436 449.507 194.018 448.691C194.246 448.371 194.582 447.9 194.764 447.644C196.386 445.372 198.001 442.743 199.49 439.955C200.433 438.188 203.136 431.737 203.765 429.752C204.652 426.955 205.49 423.556 205.93 420.972C205.99 420.623 206.09 420.053 206.154 419.705C206.316 418.814 206.474 417.408 206.703 414.798C206.891 412.644 206.918 412.123 206.873 411.509C206.862 411.36 206.878 411.179 206.908 411.107C206.939 411.034 206.956 410.65 206.947 410.252C206.938 409.854 206.929 409.29 206.928 408.999C206.919 407.512 206.725 403.611 206.651 403.443C206.629 403.392 206.583 403.067 206.55 402.72C206.436 401.542 206.363 400.945 206.206 399.913C206.119 399.347 206.024 398.706 205.995 398.491C205.966 398.275 205.889 397.941 205.824 397.748C205.76 397.556 205.728 397.347 205.754 397.285C205.781 397.222 205.762 397.064 205.713 396.933C205.633 396.719 205.181 394.68 205.073 394.045C205.049 393.904 204.956 393.598 204.867 393.365C204.778 393.132 204.722 392.9 204.744 392.849C204.765 392.799 204.712 392.558 204.628 392.315C204.543 392.072 204.368 391.508 204.239 391.062C204.111 390.616 203.968 390.147 203.921 390.02C203.875 389.892 203.677 389.281 203.482 388.66C203.023 387.204 201.041 382.36 200.348 381C200.053 380.421 199.765 379.846 199.709 379.722C199.653 379.599 199.426 379.163 199.206 378.755C198.985 378.347 198.714 377.823 198.604 377.589C198.494 377.356 198.363 377.148 198.313 377.127C198.262 377.106 198.137 376.883 198.034 376.632C197.932 376.382 197.798 376.156 197.738 376.13C197.677 376.105 197.559 375.933 197.475 375.748C197.392 375.564 197.054 375.001 196.725 374.497C196.396 373.994 196.082 373.475 196.027 373.343C195.972 373.212 195.878 373.084 195.817 373.058C195.757 373.033 195.659 372.907 195.6 372.778C195.541 372.649 195.385 372.401 195.254 372.226C195.122 372.052 194.736 371.521 194.394 371.047C194.053 370.574 193.528 369.879 193.228 369.503C192.929 369.128 192.508 368.591 192.293 368.31C191.663 367.485 189.634 365.189 188.553 364.076C188.35 363.867 187.961 363.459 187.689 363.169C187.417 362.878 187.11 362.606 187.007 362.563C186.905 362.52 186.811 362.426 186.8 362.353C186.765 362.131 181.828 357.925 180.441 356.936C180.121 356.708 179.65 356.372 179.394 356.189C177.293 354.69 174.912 353.227 171.704 351.465C170.274 350.68 162.861 347.586 161.288 347.118ZM154.105 370.548C153.346 370.446 152.668 370.345 152.043 370.241C150.801 370.034 147.675 369.612 147.603 369.642C147.56 369.659 147.51 369.866 147.492 370.102C147.461 370.485 147.347 371.273 147.085 372.906C147.038 373.198 146.961 373.692 146.913 374.005C146.865 374.317 146.789 374.812 146.744 375.105C146.698 375.398 146.627 375.895 146.585 376.209C146.543 376.524 146.464 377.035 146.409 377.345C146.355 377.654 146.24 378.422 146.155 379.051C145.888 381.013 145.853 381.188 145.708 381.247C145.63 381.279 145.159 381.237 144.659 381.153C144.16 381.07 143.511 380.967 143.218 380.923C142.924 380.88 142.412 380.803 142.08 380.753C141.748 380.702 141.276 380.64 141.032 380.615C140.31 380.541 140.154 380.422 140.234 380.006C140.274 379.794 140.326 379.493 140.349 379.336C140.372 379.18 140.427 378.829 140.472 378.557C140.563 378.01 140.995 374.997 141.3 372.784C141.493 371.391 141.575 370.848 141.759 369.765C141.859 369.172 141.875 368.718 141.796 368.685C141.768 368.673 141.621 368.676 141.47 368.692C141.225 368.717 140.489 368.624 138.817 368.356C138.211 368.259 137.393 368.133 136.617 368.017C136.324 367.974 135.813 367.887 135.483 367.825C135.153 367.763 134.83 367.733 134.766 367.759C134.703 367.785 134.55 368.494 134.426 369.335C134.303 370.176 134.163 371.104 134.117 371.396C134.071 371.688 133.994 372.183 133.946 372.495C133.898 372.807 133.82 373.302 133.773 373.594C133.725 373.885 133.638 374.512 133.578 374.985C133.309 377.122 133.084 378.6 132.959 379.064C132.834 379.529 132.794 379.561 132.425 379.489C132.206 379.447 131.77 379.375 131.457 379.329C131.144 379.284 130.663 379.213 130.389 379.173C130.115 379.132 129.44 379.041 128.888 378.969C128.336 378.897 127.728 378.808 127.536 378.77C127.344 378.732 126.448 378.598 125.545 378.472C124.642 378.346 123.489 378.178 122.982 378.099C122.475 378.02 121.768 377.921 121.411 377.881C121.054 377.84 120.27 377.723 119.669 377.622C118.739 377.465 118.558 377.477 118.464 377.703C118.403 377.849 118.221 378.865 118.058 379.96C117.895 381.056 117.657 382.622 117.528 383.441C117.4 384.259 117.312 384.984 117.333 385.051C117.374 385.184 117.536 385.214 120.077 385.566C123.454 386.033 124.184 386.231 124.899 386.875C125.746 387.636 126.271 388.814 126.162 389.706C126.142 389.864 126.059 390.492 125.977 391.102C125.895 391.712 125.761 392.71 125.68 393.32C125.598 393.93 125.496 394.652 125.453 394.925C125.41 395.197 125.335 395.676 125.287 395.988C125.239 396.301 125.158 396.811 125.107 397.122C125.02 397.648 124.911 398.422 124.432 401.901C124.329 402.647 124.209 403.481 124.164 403.753C124.12 404.025 124.049 404.506 124.007 404.82C123.965 405.135 123.884 405.646 123.829 405.955C123.773 406.264 123.679 406.904 123.619 407.378C123.498 408.339 123.003 411.816 122.878 412.583C122.834 412.855 122.763 413.335 122.721 413.65C122.679 413.965 122.599 414.475 122.543 414.785C122.488 415.094 122.393 415.734 122.333 416.208C122.216 417.134 121.89 419.465 121.764 420.275C121.721 420.548 121.65 421.029 121.605 421.342C121.424 422.605 120.915 423.391 120.048 423.748C119.254 424.075 118.714 424.057 116.055 423.618C113.034 423.119 113.278 423.079 112.956 424.125C112.695 424.974 112.46 425.709 111.203 429.598C110.884 430.586 110.648 431.459 110.68 431.537C110.733 431.672 111.022 431.737 112.419 431.927C112.733 431.97 113.243 432.05 113.553 432.106C114.117 432.207 116.73 432.586 119.393 432.953C120.179 433.061 121.076 433.192 121.387 433.243C121.698 433.295 122.177 433.369 122.451 433.408C125.045 433.782 125.102 433.802 125.005 434.276C124.893 434.825 124.772 435.609 124.592 436.951C124.444 438.051 124.372 438.538 124.184 439.689C124.137 439.981 123.954 441.247 123.779 442.503C123.604 443.76 123.43 444.945 123.392 445.137C123.299 445.611 123.413 445.735 124.021 445.824C124.307 445.866 124.78 445.938 125.073 445.983C125.366 446.028 125.861 446.104 126.173 446.152C126.485 446.2 126.98 446.277 127.272 446.323C130.383 446.813 130.616 446.827 130.616 446.528C130.616 446.39 130.66 446.024 130.713 445.714C130.858 444.873 131.084 443.39 131.21 442.447C131.252 442.132 131.333 441.622 131.388 441.313C131.444 441.004 131.597 439.979 131.727 439.037C131.857 438.094 132.047 436.757 132.149 436.066L132.334 434.809L132.695 434.822C132.893 434.828 133.148 434.873 133.263 434.921C133.377 434.969 133.671 435.026 133.917 435.048C134.378 435.09 135.832 435.306 136.701 435.462C136.971 435.511 137.361 435.574 137.567 435.601C137.977 435.656 138.012 435.792 137.852 436.695C137.759 437.223 137.201 441.058 136.962 442.819C136.882 443.409 136.779 444.131 136.732 444.423C136.686 444.715 136.613 445.194 136.569 445.488C136.525 445.781 136.438 446.294 136.375 446.627C136.312 446.961 136.295 447.318 136.337 447.42C136.389 447.547 137.158 447.716 138.74 447.95C141.44 448.348 141.926 448.424 142.695 448.567C143.006 448.625 143.314 448.651 143.38 448.625C143.445 448.598 143.637 447.633 143.808 446.481C144.12 444.369 144.213 443.763 144.371 442.791C144.419 442.499 144.527 441.746 144.611 441.116C145.178 436.898 145.243 436.621 145.629 436.784C145.753 436.836 146.507 436.942 147.306 437.018C148.881 437.17 149.003 437.176 150.081 437.154C150.478 437.146 150.847 437.159 150.901 437.182C151.028 437.237 153.609 437.069 153.738 436.997C153.792 436.966 154.148 436.919 154.528 436.891C154.908 436.864 155.333 436.795 155.472 436.738C155.611 436.681 155.774 436.656 155.835 436.681C155.895 436.706 156.052 436.686 156.183 436.636C156.314 436.586 156.765 436.454 157.185 436.343C158.894 435.892 161.64 434.589 162.766 433.695C163.005 433.504 163.242 433.332 163.293 433.311C163.514 433.221 164.843 431.913 165.284 431.351C166.121 430.286 166.371 429.913 167.04 428.731C167.955 427.116 168.681 424.708 168.812 422.857C168.852 422.292 168.733 420.557 168.648 420.471C168.601 420.424 168.591 420.318 168.626 420.235C168.66 420.153 168.614 419.857 168.524 419.577C168.433 419.298 168.378 419.024 168.401 418.969C168.468 418.809 167.038 415.322 166.683 414.78C166.505 414.509 166.345 414.244 166.326 414.19C166.243 413.957 165.499 412.915 164.898 412.19C163.7 410.747 161.905 409.156 161.088 408.813C160.683 408.643 160.717 408.594 161.454 408.293C161.794 408.153 162.33 407.887 162.645 407.702C162.96 407.516 163.267 407.351 163.327 407.334C163.428 407.306 163.764 407.057 164.791 406.248C165.015 406.072 165.435 405.653 165.724 405.317C167.152 403.663 167.94 402.109 168.347 400.146C168.474 399.535 168.626 398.833 168.685 398.587C168.745 398.341 168.755 398.086 168.708 398.021C168.662 397.955 168.668 397.796 168.723 397.666C168.839 397.39 168.617 394.733 168.448 394.371C168.424 394.319 168.332 393.986 168.244 393.632C168.04 392.811 167.681 391.932 167.251 391.203C167.065 390.889 166.898 390.587 166.879 390.533C166.83 390.394 165.928 389.194 165.618 388.856C163.665 386.726 161.368 385.263 157.965 383.98C156.071 383.266 153.919 382.562 153.345 382.468C153.23 382.45 153.168 382.315 153.202 382.158C153.235 382.006 153.265 381.78 153.267 381.657C153.274 381.344 153.869 377.137 154.126 375.594C154.177 375.284 154.325 374.257 154.453 373.314C154.582 372.37 154.719 371.413 154.76 371.187C154.845 370.706 154.776 370.638 154.105 370.548ZM147.997 390.334C147.336 390.128 146.508 389.913 146.157 389.858C145.806 389.802 145.267 389.71 144.959 389.652C144.288 389.525 142.325 389.257 140.672 389.064C139.507 388.929 139.153 388.903 139.133 388.951C139.113 388.998 138.97 390.046 138.841 391.095C138.811 391.332 138.721 392.008 138.639 392.597C138.489 393.682 138.362 394.645 138.172 396.141C138.114 396.595 138.029 397.188 137.982 397.459C137.935 397.73 137.839 398.439 137.77 399.033C137.701 399.627 137.6 400.367 137.547 400.677C137.493 400.987 137.415 401.498 137.373 401.813C137.331 402.128 137.274 402.529 137.246 402.704C137.172 403.165 137.67 403.325 140.882 403.876C142.751 404.197 143.1 404.244 144.386 404.348C146.217 404.495 148.615 404.41 149.184 404.178C149.321 404.122 149.475 404.093 149.525 404.114C149.702 404.189 151.425 403.47 152.054 403.059C152.403 402.832 152.864 402.447 153.078 402.204C153.292 401.962 153.553 401.711 153.659 401.648C153.764 401.585 154.136 400.857 154.486 400.03C155.047 398.703 155.116 398.438 155.082 397.756C155.061 397.331 155 396.876 154.948 396.745C154.896 396.613 154.876 396.451 154.904 396.386C154.971 396.226 154.178 394.279 154.019 394.212C153.951 394.184 153.848 394.056 153.792 393.928C153.283 392.777 150.712 391.182 147.997 390.334ZM146.834 412.382C146.278 412.223 145.496 412.021 145.096 411.933C143.296 411.539 142.743 411.426 142.278 411.356C142.005 411.314 141.366 411.217 140.858 411.139C140.351 411.06 139.741 410.974 139.504 410.946C139.266 410.918 138.813 410.862 138.497 410.823C138.182 410.783 137.696 410.724 137.418 410.693C137.141 410.662 136.736 410.599 136.52 410.554C135.87 410.417 135.865 410.431 135.42 413.839C135.358 414.311 135.226 415.276 135.126 415.982C135.025 416.688 134.845 418.006 134.725 418.912C134.605 419.817 134.471 420.781 134.427 421.053C134.383 421.326 134.3 421.92 134.242 422.374C134.185 422.828 134.091 423.57 134.033 424.024C133.975 424.477 133.884 425.073 133.83 425.348C133.651 426.262 133.621 426.237 135.231 426.537C135.539 426.595 136.137 426.709 136.56 426.791C139.389 427.34 141.786 427.68 143.406 427.763C144.66 427.827 147.454 427.668 147.837 427.511C147.976 427.455 148.204 427.418 148.344 427.431C148.797 427.471 151.572 426.204 152.202 425.669C153.383 424.664 153.724 424.189 154.384 422.624C154.977 421.218 155.005 421.094 154.969 420.035C154.948 419.424 154.88 418.903 154.819 418.877C154.758 418.852 154.742 418.75 154.783 418.653C154.844 418.505 154.524 417.725 154.058 416.892C153.792 416.415 152.632 415.24 152.03 414.838C151.66 414.59 151.102 414.216 150.789 414.006C150.114 413.553 148.25 412.788 146.834 412.382Z" fill="#0AC08D"/>
<path fill-rule="evenodd" clip-rule="evenodd" d="M170.871 327.33C157.223 322.548 143.764 321.12 129.784 322.969C122.504 323.933 115.742 325.734 108.63 328.605C101.7 331.403 95.6871 334.728 89.8732 338.977C79.0248 346.906 70.5375 356.694 64.1026 368.696C62.454 371.771 59.0734 379.832 58.0351 383.163C52.3824 401.298 52.5841 419.959 58.6248 437.768C59.5062 440.366 61.6444 445.569 62.7956 447.917C71.0111 464.669 83.8356 477.935 100.42 486.836C103.522 488.501 111.549 491.866 114.942 492.925C132.928 498.535 151.381 498.377 169.119 492.459C177.431 489.686 185.784 485.376 192.84 480.218C203.687 472.291 212.172 462.503 218.6 450.507C220.073 447.756 223.518 439.643 224.444 436.746C229.408 421.193 230.095 405.827 226.529 390.095C224.812 382.521 221.838 374.663 218.069 367.744C209.898 352.745 197.568 340.535 182.433 332.452C180.519 331.43 172.753 327.99 170.871 327.33ZM168.917 331.36C168.523 331.249 168.46 331.279 168.31 331.648C167.958 332.517 164.254 343.35 164.287 343.416C164.306 343.455 164.915 343.693 165.64 343.947L166.958 344.407L167.495 343.045C167.79 342.296 168.861 339.601 169.876 337.055L171.721 332.426L170.538 331.955C169.888 331.695 169.158 331.428 168.917 331.36ZM178.367 335.386C178.253 335.599 173.739 344.594 173.232 345.617L172.576 346.943L173.84 347.613C174.535 347.982 175.149 348.251 175.204 348.212C175.259 348.172 176.586 345.803 178.153 342.947C179.72 340.091 181.109 337.586 181.241 337.379L181.48 337.004L180.769 336.617C179.001 335.657 178.39 335.344 178.367 335.386ZM157.228 328.153C154.061 327.541 149.436 326.914 149.365 327.085C149.348 327.124 149.201 328.535 149.037 330.222C148.872 331.909 148.675 333.909 148.597 334.666C148.063 339.88 148.062 339.918 148.4 339.95C149.618 340.065 154.098 340.746 155.208 340.984C156.401 341.241 156.573 341.243 156.67 341.009C156.731 340.862 156.962 339.901 157.184 338.872C157.788 336.078 159.401 328.736 159.423 328.683C159.459 328.599 159.134 328.521 157.228 328.153ZM189.227 342.149C189.137 342.257 188.56 343.052 187.945 343.916C186.348 346.157 184.86 348.238 183.379 350.302C182.672 351.288 182.05 352.199 181.997 352.326C181.935 352.473 182.016 352.64 182.219 352.786C184.6 354.491 187.38 356.779 189.362 358.665C190.065 359.334 190.666 359.869 190.698 359.855C190.781 359.818 199.459 350.978 199.593 350.795C199.83 350.468 195.407 346.468 191.765 343.717C189.275 341.835 189.416 341.922 189.227 342.149ZM146.033 326.742C144.372 326.642 139.734 326.629 139.693 326.724C139.642 326.847 139.786 338.332 139.849 339.186L139.881 339.606L141.429 339.608C142.281 339.609 143.579 339.636 144.314 339.667C145.049 339.698 145.674 339.719 145.703 339.712C145.731 339.706 145.887 337.42 146.048 334.632C146.21 331.845 146.385 328.953 146.438 328.207C146.531 326.887 146.498 326.771 146.033 326.742ZM201.001 353.438C199.148 355.162 193.932 360.062 193.167 360.798L192.322 361.611L193.209 362.591C193.696 363.13 194.164 363.6 194.247 363.635C194.385 363.693 204.068 355.391 204.008 355.265C203.956 355.154 202.546 353.542 202.157 353.148L201.754 352.739L201.001 353.438ZM130.834 327.299C130.005 327.399 129.244 327.537 129.141 327.607C128.971 327.722 129.142 328.992 130.831 340.195C130.859 340.38 130.981 340.401 131.508 340.311C131.862 340.251 132.491 340.162 132.907 340.113C133.322 340.065 133.688 339.962 133.72 339.886C133.771 339.765 132.534 328.117 132.393 327.392C132.346 327.148 132.181 327.138 130.834 327.299ZM207.867 361.525C207.474 361.798 206.381 362.581 205.439 363.267C204.496 363.952 202.48 365.405 200.958 366.496C199.436 367.587 198.177 368.521 198.16 368.572C198.124 368.681 201.187 373.27 201.339 373.334C201.396 373.358 203.896 371.89 206.894 370.073L212.346 366.768L212.121 366.328C211.868 365.834 209.148 361.707 208.804 361.295C208.6 361.052 208.521 361.071 207.867 361.525ZM161.287 347.118C158.041 346.152 155.129 345.438 152.757 345.028C152.428 344.971 151.858 344.87 151.491 344.804C149.878 344.515 143.388 343.939 143.206 344.069C143.146 344.111 143.014 344.111 142.911 344.068C142.808 344.025 142.399 343.997 142.001 344.006C141.604 344.015 141.04 344.024 140.748 344.026C139.197 344.034 136.137 344.197 135.107 344.325C134.756 344.368 134.078 344.444 133.601 344.494C133.123 344.543 132.259 344.656 131.682 344.744C131.105 344.833 130.453 344.928 130.233 344.956C130.014 344.983 129.792 345.027 129.739 345.054C129.686 345.08 128.94 345.239 128.08 345.407C127.22 345.575 126.36 345.77 126.17 345.84C125.979 345.91 125.773 345.947 125.713 345.922C125.652 345.896 125.398 345.959 125.147 346.062C124.896 346.164 124.649 346.231 124.599 346.21C124.548 346.189 124.308 346.241 124.065 346.326C123.821 346.411 123.258 346.585 122.812 346.714C122.366 346.843 121.897 346.986 121.769 347.032C121.642 347.079 121.03 347.277 120.41 347.472C118.954 347.93 114.109 349.912 112.749 350.605C112.17 350.901 111.595 351.188 111.472 351.244C111.348 351.3 110.913 351.527 110.505 351.748C110.097 351.969 109.572 352.239 109.339 352.349C109.106 352.459 108.898 352.59 108.877 352.641C108.855 352.691 108.651 352.814 108.422 352.914C108.193 353.013 107.91 353.162 107.792 353.244C107.264 353.612 105.493 354.718 105.284 354.811C105.156 354.868 105.03 354.965 105.004 355.028C104.978 355.09 104.807 355.214 104.624 355.303C104.442 355.392 104.15 355.571 103.975 355.701C103.801 355.832 103.278 356.213 102.813 356.548C101.966 357.159 101.49 357.525 100.569 358.27C100.299 358.489 100.035 358.684 99.9828 358.704C99.811 358.769 96.8923 361.364 95.8258 362.4C95.6166 362.603 95.2081 362.992 94.918 363.264C94.6279 363.537 94.3658 363.819 94.3355 363.891C94.3051 363.963 94.1871 364.102 94.0732 364.198C93.9592 364.295 93.7429 364.492 93.5925 364.637C93.1683 365.045 90.6451 367.946 90.3184 368.401C90.1581 368.625 89.7226 369.19 89.3508 369.658C88.9789 370.125 88.5293 370.719 88.3516 370.977C84.468 376.615 83.2322 378.835 80.9495 384.275C78.8831 389.199 78.0636 391.824 77.1133 396.561C76.5747 399.247 76.5561 399.351 76.4151 400.5C76.3422 401.092 76.2442 401.799 76.1969 402.07C76.1008 402.623 75.7995 406.456 75.8059 407.044C75.8081 407.253 75.8189 407.546 75.8299 407.695C75.8409 407.843 75.8249 408.025 75.7946 408.097C75.7642 408.169 75.7468 408.554 75.7558 408.952C75.765 409.349 75.7738 409.913 75.7754 410.205C75.7837 411.692 75.9777 415.593 76.0517 415.761C76.0741 415.812 76.1198 416.137 76.1532 416.483C76.2667 417.662 76.34 418.258 76.4976 419.29C76.5841 419.857 76.6776 420.5 76.7053 420.72C76.7328 420.939 76.7733 421.16 76.7949 421.211C76.8167 421.261 76.9856 422.066 77.1701 422.998C77.3547 423.931 77.5548 424.788 77.6151 424.903C77.6753 425.019 77.7021 425.166 77.6748 425.232C77.6474 425.297 77.709 425.555 77.8115 425.806C77.9141 426.057 77.9807 426.304 77.9595 426.354C77.9383 426.405 77.9906 426.645 78.0755 426.888C78.1605 427.132 78.3351 427.696 78.4637 428.141C78.5922 428.587 78.7354 429.056 78.782 429.184C78.8284 429.311 79.0263 429.923 79.2215 430.543C79.68 431.999 81.6616 436.844 82.355 438.204C82.6503 438.783 82.9378 439.358 82.994 439.481C83.0501 439.605 83.2767 440.04 83.4975 440.448C83.7182 440.857 83.9889 441.381 84.0987 441.614C84.2086 441.847 84.3399 442.055 84.3904 442.077C84.4409 442.098 84.5662 442.32 84.6688 442.571C84.7714 442.822 84.9049 443.048 84.9654 443.073C85.026 443.099 85.144 443.27 85.2276 443.455C85.3115 443.64 85.6495 444.202 85.979 444.704C86.3085 445.207 86.5775 445.673 86.5767 445.741C86.5761 445.809 86.6465 445.894 86.7333 445.93C86.8201 445.967 86.9637 446.146 87.0524 446.329C87.1412 446.511 87.3205 446.803 87.451 446.978C87.5814 447.152 87.9675 447.682 88.309 448.156C88.6505 448.63 89.175 449.325 89.4747 449.7C89.7743 450.076 90.1952 450.613 90.4098 450.894C91.0403 451.718 93.0687 454.014 94.1498 455.127C94.353 455.336 94.742 455.745 95.0141 456.035C95.2864 456.325 95.5931 456.598 95.6957 456.641C95.7984 456.684 95.8916 456.778 95.9029 456.85C95.9377 457.07 100.92 461.317 102.205 462.223C102.494 462.426 102.965 462.762 103.252 462.97C104.007 463.517 105.514 464.525 106.615 465.219C107.512 465.785 108.302 466.24 111.006 467.745C112.458 468.554 119.522 471.513 121.19 472.013C124.823 473.1 127.275 473.707 129.91 474.171C130.22 474.226 130.789 474.326 131.176 474.395C132.162 474.569 133.536 474.723 136.156 474.953C138.309 475.141 138.83 475.168 139.444 475.123C139.593 475.112 139.774 475.128 139.847 475.158C139.919 475.189 140.304 475.206 140.701 475.197C141.099 475.188 141.663 475.179 141.955 475.178C143.506 475.169 146.566 475.007 147.596 474.879C147.947 474.835 148.624 474.759 149.102 474.71C149.58 474.66 150.443 474.547 151.021 474.459C151.598 474.37 152.247 474.274 152.463 474.245C152.679 474.216 153.013 474.139 153.205 474.075C153.398 474.01 153.626 473.987 153.713 474.023C153.8 474.059 153.91 474.05 153.958 474.002C154.006 473.954 154.527 473.819 155.116 473.702C155.706 473.585 156.343 473.432 156.534 473.362C156.724 473.293 156.929 473.256 156.99 473.282C157.05 473.307 157.305 473.244 157.556 473.142C157.807 473.039 158.053 472.972 158.104 472.994C158.154 473.015 158.395 472.962 158.638 472.876C158.881 472.79 159.424 472.629 159.844 472.517C160.265 472.406 160.733 472.263 160.884 472.199C161.036 472.136 161.668 471.925 162.29 471.73C163.75 471.273 168.593 469.292 169.955 468.595C170.535 468.298 171.134 468.006 171.286 467.945C171.439 467.884 171.873 467.658 172.251 467.443C172.629 467.227 173.13 466.962 173.363 466.853C173.597 466.744 173.805 466.613 173.826 466.563C173.848 466.512 174.052 466.389 174.281 466.29C174.51 466.19 174.793 466.041 174.91 465.96C175.39 465.626 177.206 464.492 177.521 464.33C177.706 464.235 177.877 464.112 177.9 464.057C177.923 464.002 178.047 463.909 178.175 463.85C178.304 463.791 178.552 463.635 178.727 463.504C178.902 463.372 179.425 462.991 179.89 462.655C180.737 462.044 181.213 461.679 182.134 460.934C182.404 460.715 182.668 460.52 182.72 460.5C182.892 460.435 185.811 457.839 186.877 456.803C187.086 456.6 187.495 456.211 187.785 455.939C188.075 455.667 188.337 455.385 188.367 455.312C188.398 455.24 188.516 455.102 188.63 455.005C189.099 454.607 189.452 454.223 190.856 452.579C192.564 450.579 193.436 449.507 194.017 448.691C194.245 448.371 194.581 447.9 194.764 447.644C196.385 445.372 198.001 442.743 199.489 439.955C200.433 438.188 203.136 431.737 203.765 429.752C204.651 426.955 205.49 423.555 205.93 420.971C205.989 420.622 206.09 420.053 206.153 419.705C206.316 418.814 206.474 417.408 206.702 414.798C206.891 412.644 206.918 412.123 206.873 411.509C206.862 411.36 206.878 411.179 206.908 411.106C206.939 411.034 206.956 410.649 206.947 410.252C206.938 409.854 206.929 409.29 206.927 408.998C206.919 407.512 206.725 403.611 206.651 403.443C206.629 403.392 206.583 403.066 206.55 402.72C206.436 401.542 206.363 400.945 206.205 399.913C206.119 399.346 206.024 398.706 205.995 398.49C205.966 398.275 205.889 397.941 205.824 397.748C205.759 397.556 205.728 397.347 205.754 397.285C205.78 397.222 205.762 397.064 205.713 396.933C205.632 396.718 205.181 394.68 205.073 394.045C205.049 393.904 204.956 393.598 204.867 393.365C204.778 393.132 204.722 392.9 204.743 392.849C204.765 392.799 204.712 392.558 204.627 392.315C204.542 392.072 204.368 391.508 204.239 391.062C204.111 390.616 203.967 390.147 203.921 390.019C203.874 389.892 203.677 389.28 203.481 388.66C203.023 387.204 201.041 382.359 200.348 381C200.053 380.42 199.765 379.845 199.709 379.722C199.653 379.598 199.426 379.163 199.205 378.755C198.985 378.347 198.714 377.822 198.604 377.589C198.494 377.356 198.363 377.148 198.312 377.127C198.262 377.106 198.137 376.883 198.034 376.632C197.931 376.382 197.798 376.156 197.737 376.13C197.677 376.105 197.559 375.933 197.475 375.748C197.391 375.564 197.054 375.001 196.725 374.497C196.396 373.994 196.081 373.475 196.027 373.343C195.972 373.212 195.878 373.083 195.817 373.058C195.757 373.033 195.659 372.907 195.6 372.778C195.541 372.649 195.385 372.401 195.253 372.226C195.122 372.052 194.735 371.521 194.394 371.047C194.052 370.573 193.528 369.878 193.228 369.503C192.929 369.127 192.508 368.591 192.293 368.31C191.663 367.485 189.634 365.189 188.553 364.076C188.35 363.867 187.961 363.458 187.689 363.168C187.416 362.878 187.11 362.606 187.007 362.563C186.905 362.52 186.811 362.425 186.8 362.353C186.765 362.13 181.828 357.925 180.441 356.936C180.121 356.708 179.65 356.372 179.394 356.189C177.292 354.69 174.911 353.227 171.704 351.465C170.274 350.68 162.86 347.585 161.287 347.118ZM115.895 330.64C113.948 331.257 110.319 332.629 110.259 332.77C110.236 332.826 111.283 335.539 112.585 338.801L114.952 344.731L116.737 344.083C117.719 343.726 118.938 343.303 119.445 343.142C119.953 342.981 120.387 342.814 120.411 342.771C120.434 342.729 120.252 342.074 120.007 341.317C119.761 340.56 118.926 337.907 118.151 335.421C117.375 332.935 116.703 330.794 116.656 330.663C116.586 330.468 116.45 330.464 115.895 330.64ZM212.041 380.528L206.131 382.947L206.606 384.293C206.867 385.034 207.102 385.649 207.128 385.66C207.154 385.671 208.067 385.357 209.157 384.962C210.246 384.567 211.3 384.187 211.498 384.117C214.798 382.959 219.258 381.288 219.261 381.209C219.268 381.014 218.153 378.195 218.052 378.153C217.996 378.129 215.291 379.198 212.041 380.528ZM103.433 335.795C101.779 336.656 101.362 336.926 101.436 337.088C101.653 337.56 107.475 348.1 107.555 348.166C107.608 348.209 108.229 347.942 108.934 347.573L110.217 346.902L110.023 346.519C109.916 346.308 108.678 343.816 107.271 340.982C105.865 338.148 104.641 335.71 104.552 335.563C104.408 335.326 104.288 335.351 103.433 335.795ZM219.034 387.898C217.873 388.223 216.579 388.581 216.158 388.694C215.737 388.807 215.236 388.947 215.045 389.005C214.854 389.063 213.414 389.464 211.846 389.895C210.277 390.326 208.948 390.711 208.892 390.75C208.817 390.804 209.307 393.111 209.488 393.555C209.514 393.618 211.997 393.052 217.95 391.626C219.013 391.371 220.359 391.052 220.942 390.916C221.734 390.731 222.005 390.605 222.011 390.418C222.021 390.084 221.339 387.396 221.23 387.346C221.183 387.325 220.195 387.573 219.034 387.898ZM91.0089 343.646C90.3025 344.2 89.7499 344.707 89.781 344.772C89.812 344.838 91.2389 346.657 92.9518 348.815C97.2051 354.173 97.6243 354.692 97.7377 354.74C97.8594 354.791 99.8603 353.246 99.939 353.04C99.996 352.891 92.6493 342.781 92.4168 342.688C92.3488 342.661 91.7152 343.092 91.0089 343.646ZM222.543 397.969C219.445 398.389 211.022 399.595 210.863 399.641C210.72 399.682 210.709 400.094 210.823 401.118C210.91 401.899 211.022 402.556 211.072 402.576C211.121 402.597 213.291 402.397 215.893 402.131C218.494 401.864 221.26 401.587 222.038 401.515C222.817 401.442 223.557 401.345 223.683 401.299C223.868 401.232 223.874 400.898 223.717 399.597C223.609 398.707 223.463 397.954 223.393 397.925C223.322 397.895 222.94 397.915 222.543 397.969ZM217.697 404.692C214.202 404.919 211.313 405.117 211.278 405.131C211.244 405.145 211.248 405.947 211.288 406.912C211.328 407.877 211.353 409.156 211.344 409.753C211.335 410.351 211.369 410.858 211.42 410.881C211.552 410.939 224.014 411.153 224.177 411.1C224.388 411.032 224.35 405.023 224.135 404.484C224.074 404.331 222.42 404.384 217.697 404.692ZM84.9286 348.725C84.6162 348.948 81.3918 352.223 80.1106 353.618C77.922 356 75.8574 358.524 75.9694 358.681C76.035 358.773 85.9116 366.553 86.0209 366.599C86.0481 366.61 86.4328 366.177 86.8758 365.635C88.4345 363.731 90.5443 361.409 92.182 359.796C93.0924 358.899 93.8135 358.116 93.7848 358.054C93.7561 357.993 92.6305 356.76 91.2834 355.315C89.9363 353.87 87.9963 351.788 86.9722 350.688C84.923 348.487 85.0675 348.625 84.9286 348.725ZM219.373 416.877C216.972 416.656 214.14 416.395 213.08 416.298C211.812 416.181 211.126 416.183 211.076 416.301C211.035 416.4 210.945 417.029 210.878 417.698C210.74 419.048 210.735 419.041 211.901 419.167C212.306 419.21 215.05 419.572 218 419.97C220.95 420.368 223.412 420.687 223.471 420.679C223.531 420.67 223.656 420.101 223.749 419.414C223.954 417.904 223.978 417.355 223.841 417.312C223.784 417.294 221.773 417.098 219.373 416.877ZM73.3885 362.018C72.1088 363.812 72.1309 363.763 72.4942 364.008C72.6699 364.126 73.9582 364.98 75.3571 365.905C76.7561 366.83 78.5366 368.016 79.3138 368.541C81.4747 370.001 82.9309 370.934 82.988 370.898C83.1701 370.78 84.5956 368.627 84.5561 368.529C84.5295 368.462 83.9336 367.993 83.2321 367.486C82.5305 366.978 80.2741 365.346 78.2177 363.859C76.1613 362.371 74.3969 361.119 74.2968 361.077C74.1729 361.025 73.8824 361.326 73.3885 362.018ZM213.945 435.223C211.559 434.372 209.114 433.514 208.511 433.316L207.416 432.955L206.296 435.625L205.176 438.295L207.231 439.251C208.361 439.776 211.019 440.977 213.138 441.92L216.991 443.634L218.233 440.671C218.916 439.042 219.479 437.603 219.483 437.473C219.492 437.19 219.696 437.273 213.945 435.223ZM72.3684 382.038C70.3343 381.24 67.6982 380.189 66.5102 379.702L64.3503 378.817L63.9322 379.813C63.3505 381.198 62.0638 385.012 62.1233 385.174C62.1502 385.248 63.0729 385.585 64.1737 385.922C65.2745 386.26 68.0094 387.099 70.2512 387.787C72.4931 388.475 74.3532 389.027 74.3847 389.014C74.4163 389.001 74.7449 388.104 75.1148 387.02C75.4847 385.936 75.9049 384.73 76.0485 384.34C76.1922 383.949 76.255 383.598 76.1882 383.559C76.1213 383.521 74.4024 382.836 72.3684 382.038ZM71.3347 390.808C70.4325 390.581 67.7995 389.887 65.4835 389.266C63.1675 388.645 61.2495 388.145 61.2214 388.155C61.1932 388.165 61.0005 388.876 60.7931 389.734C60.497 390.96 60.4587 391.323 60.6146 391.427C60.7237 391.5 62.1973 391.869 63.8892 392.249C65.581 392.628 68.316 393.244 69.9671 393.617C72.711 394.236 72.9774 394.272 73.0675 394.033C73.122 393.89 73.2923 393.281 73.4462 392.681C73.7222 391.604 73.7209 391.587 73.3505 391.405C73.1441 391.303 72.237 391.034 71.3347 390.808ZM199.273 448.894C198.821 449.556 198.463 450.131 198.477 450.172C198.491 450.213 199.304 450.807 200.284 451.492C201.264 452.177 203.615 453.825 205.51 455.154C207.404 456.483 208.987 457.557 209.027 457.542C209.242 457.46 210.894 454.865 210.809 454.745C210.756 454.671 208.402 453.114 205.577 451.286C202.753 449.457 200.364 447.9 200.269 447.826C200.132 447.719 199.921 447.946 199.273 448.894ZM69.64 399.172C68.5382 399.025 65.79 398.638 63.5327 398.313C61.2755 397.988 59.3792 397.742 59.3186 397.767C59.187 397.821 58.7582 400.836 58.8451 401.096C58.8685 401.166 62.8758 401.618 66.2899 401.935C66.8898 401.991 68.3238 402.139 69.4763 402.264C70.6289 402.39 71.6008 402.485 71.636 402.477C71.6711 402.468 71.7813 401.813 71.8808 401.021C72.0151 399.95 72.0078 399.562 71.8524 399.51C71.7374 399.471 70.7418 399.319 69.64 399.172ZM196.78 452.381C195.421 453.967 195.14 454.385 195.302 454.582C195.392 454.692 197.156 456.184 199.221 457.898C201.287 459.612 203.428 461.396 203.98 461.864C204.532 462.331 205.04 462.691 205.108 462.663C205.249 462.606 207.204 460.155 207.172 460.075C207.16 460.047 205.971 459.117 204.529 458.009C203.088 456.901 200.847 455.178 199.549 454.179C198.252 453.181 197.124 452.337 197.045 452.303C196.964 452.27 196.845 452.305 196.78 452.381ZM69.8892 408.486C69.3472 408.49 66.605 408.462 63.7953 408.423C60.9856 408.385 58.6221 408.378 58.5431 408.408C58.3283 408.49 58.3344 412.396 58.553 414.729L58.6007 415.239L65.0093 414.814C68.5341 414.58 71.4433 414.379 71.4743 414.368C71.5054 414.357 71.5013 413.972 71.4654 413.512C71.4294 413.053 71.3861 411.787 71.3694 410.699C71.3468 409.228 71.2795 408.691 71.1067 408.6C70.979 408.533 70.4311 408.482 69.8892 408.486ZM187.87 461.904C187.217 462.474 186.847 462.885 186.893 462.987C187.007 463.238 194.97 472.589 195.125 472.654C195.309 472.731 197.732 470.553 197.655 470.38C197.585 470.222 189.128 461.072 189.004 461.02C188.959 461.001 188.448 461.398 187.87 461.904ZM183.889 465.184C182.149 466.538 179.349 468.431 177.347 469.609C176.271 470.241 175.378 470.796 175.361 470.842C175.345 470.888 176.005 472.111 176.829 473.559C177.652 475.007 179.064 477.512 179.966 479.127C180.868 480.741 181.664 482.053 181.735 482.043C182.013 482.003 185.562 479.845 187.63 478.459C189.867 476.958 192.722 474.835 192.822 474.597C192.867 474.489 190.789 471.777 187.352 467.461C187.107 467.153 186.484 466.359 185.967 465.696C185.45 465.033 184.992 464.475 184.947 464.456C184.903 464.438 184.427 464.765 183.889 465.184ZM66.127 423.442C62.7018 424.101 59.8768 424.676 59.8493 424.719C59.8217 424.761 59.936 425.505 60.1031 426.371C60.4058 427.939 60.4088 427.946 60.8018 427.873C61.2196 427.796 72.8964 425.171 73.0204 425.127C73.1125 425.094 72.5364 422.291 72.432 422.264C72.3893 422.253 69.5521 422.783 66.127 423.442ZM73.7206 433.398C72.8433 433.706 71.366 434.229 70.4376 434.56C69.5092 434.891 67.493 435.607 65.9574 436.15C64.0806 436.814 63.1735 437.205 63.1901 437.344C63.2297 437.672 64.5469 441.007 64.6548 441.052C64.7085 441.075 67.4125 440.005 70.6635 438.674L76.5747 436.255L75.9584 434.548C75.6194 433.61 75.3362 432.841 75.3289 432.84C75.3216 432.839 74.5978 433.09 73.7206 433.398ZM169.279 473.771C168.514 474.126 167.856 474.449 167.818 474.488C167.754 474.553 171.894 484.655 172.479 485.862L172.734 486.388L174.361 485.699C175.255 485.321 176.022 484.927 176.065 484.824C176.14 484.646 170.952 473.244 170.76 473.164C170.711 473.143 170.044 473.417 169.279 473.771ZM80.6274 449.177C78.8764 448.956 77.0026 449.592 75.4024 450.951C73.6998 452.397 72.9064 454.029 73.0397 455.812C73.18 457.689 75.1876 460.592 76.9815 461.512L77.5071 461.781L77.9111 461.25C78.1335 460.958 78.4374 460.533 78.5867 460.307C78.8559 459.898 78.8539 459.892 78.3651 459.606C77.6302 459.175 76.3981 457.725 76.0564 456.89C75.5767 455.717 75.8209 454.679 76.8294 453.607C78.6813 451.637 81.0371 451.36 82.4262 452.948C82.9897 453.592 83.5783 454.77 83.7649 455.626L83.8699 456.109L85.0038 455.784L86.1379 455.46L86.1004 454.994C86.0352 454.18 85.1713 452.328 84.4788 451.516C83.28 450.112 82.0338 449.355 80.6274 449.177ZM156.044 481.859C154.293 481.85 152.777 482.305 151.998 483.073C151.214 483.845 151.04 485.134 151.573 486.228C152.019 487.144 152.69 487.496 154.973 488.01C155.941 488.228 156.305 488.521 156.13 488.939C155.929 489.418 154.47 489.693 152.984 489.531C152.601 489.489 152.27 489.495 152.25 489.543C152.186 489.696 152.145 491.65 152.205 491.675C152.438 491.773 154.191 491.809 154.866 491.73C157.444 491.428 158.926 490.194 158.786 488.467C158.657 486.866 157.82 486.184 155.341 485.661C154.223 485.425 153.887 485.217 153.901 484.769C153.912 484.406 154.686 484.091 155.676 484.046C156.192 484.023 156.687 484.035 156.778 484.073C156.868 484.111 157.001 484.081 157.072 484.007C157.269 483.801 157.275 482.096 157.079 481.972C156.984 481.912 156.518 481.862 156.044 481.859ZM146.34 483.087C145.014 483.028 141.895 483.516 141.602 483.828C141.546 483.888 141.613 485.904 141.75 488.308L141.999 492.678L143.2 492.631C143.86 492.606 144.464 492.564 144.541 492.539C144.619 492.514 144.597 491.104 144.492 489.407C144.221 484.992 144.15 485.495 145.058 485.43C146.069 485.357 146.512 485.552 146.744 486.174C146.845 486.445 147.012 487.943 147.115 489.503C147.217 491.062 147.328 492.35 147.36 492.363C147.492 492.419 149.745 492.275 149.844 492.205C149.902 492.163 149.896 491.23 149.83 490.132C149.763 489.034 149.692 487.737 149.671 487.249C149.615 485.982 149.242 484.781 148.718 484.187C148.202 483.602 147.166 483.123 146.34 483.087ZM85.1212 458.12C85.0483 458.203 84.8155 458.503 84.6037 458.789C84.3919 459.074 84.1517 459.39 84.0701 459.491C83.9577 459.631 84.0311 459.747 84.371 459.967C85.072 460.42 85.9883 461.32 86.3007 461.862C86.5435 462.283 86.5513 462.435 86.3542 462.905C86.2272 463.208 86.0784 463.474 86.0237 463.496C85.9688 463.519 85.6216 463.184 85.2521 462.752C83.3135 460.485 81.4135 460.207 79.8464 461.962C78.7501 463.19 79.0376 464.721 80.706 466.542C81.4163 467.317 83.1451 468.756 83.5782 468.934C83.8123 469.029 84.1912 468.727 86.0852 466.933C87.9746 465.143 88.379 464.694 88.7258 464.001C89.2901 462.873 89.2159 462.087 88.4317 460.889C87.6139 459.64 85.4086 457.795 85.1212 458.12ZM99.5736 466.163C99.4704 466.306 98.5345 467.733 97.4939 469.333C96.4531 470.933 94.9376 473.254 94.126 474.491C93.3143 475.728 92.6755 476.797 92.706 476.866C92.7613 476.991 94.7225 478.321 94.8025 478.288C94.8255 478.278 95.68 476.989 96.7013 475.423L98.5581 472.575L98.9434 472.686C99.5365 472.858 100.061 473.253 100.249 473.669C100.386 473.974 100.358 474.192 100.105 474.796C99.9326 475.207 99.6 475.83 99.3661 476.18C98.2115 477.907 97.3001 479.332 97.1971 479.573C97.096 479.809 97.2052 479.92 98.1226 480.513C98.6948 480.883 99.1879 481.176 99.2186 481.165C99.2494 481.153 99.9241 480.167 100.718 478.975C102.515 476.276 103.145 474.929 103.056 473.979C102.943 472.779 102.156 471.777 100.752 471.045C100.255 470.786 99.9254 470.541 99.9605 470.459C99.9936 470.381 100.479 469.628 101.04 468.786C101.6 467.945 102.09 467.181 102.128 467.09C102.18 466.966 101.89 466.794 100.98 466.413C99.8215 465.927 99.7521 465.914 99.5736 466.163ZM125.287 477.446C124.298 477.423 124 477.471 123.946 477.661C123.788 478.218 121.449 490.13 121.482 490.21C121.51 490.28 123.248 490.67 123.882 490.748C123.994 490.762 124.154 490.189 124.399 488.907C124.595 487.883 124.789 487.031 124.83 487.014C124.966 486.959 125.909 488.69 126.49 490.063C126.82 490.84 127.15 491.416 127.275 491.434C127.395 491.451 128.041 491.575 128.711 491.711C129.382 491.846 129.946 491.919 129.965 491.873C130.1 491.552 127.765 486.562 127.41 486.414C127.171 486.313 127.431 486.066 128.773 485.12C130.464 483.928 131.609 483.041 131.572 482.952C131.557 482.914 130.886 482.759 130.081 482.607L128.617 482.331L128.039 482.758C127.721 482.993 126.98 483.552 126.392 484C125.689 484.536 125.318 484.741 125.307 484.602C125.297 484.486 125.595 482.887 125.969 481.049C126.343 479.211 126.629 477.655 126.604 477.592C126.58 477.528 125.987 477.463 125.287 477.446ZM135.732 482.961C133.621 482.898 131.88 484.272 131.362 486.408C130.705 489.127 131.614 491.35 133.75 492.246C134.797 492.685 137.333 492.792 138.49 492.447L138.921 492.318L138.843 491.294C138.77 490.328 138.599 490 138.287 490.223C138.212 490.277 137.717 490.352 137.188 490.39C136.467 490.442 135.992 490.38 135.296 490.14C134.435 489.844 134.348 489.783 134.1 489.3C133.953 489.013 133.853 488.73 133.877 488.672C133.902 488.613 135.157 488.661 136.666 488.778C138.175 488.895 139.472 488.97 139.547 488.943C139.766 488.866 139.881 487.087 139.721 486.247C139.552 485.358 139.103 484.49 138.566 484.014C137.991 483.505 136.598 482.987 135.732 482.961ZM91.6911 464.953C91.1986 464.944 90.3872 465.257 89.9316 465.632C89.4316 466.044 88.8959 467.33 88.9565 467.973C88.9827 468.25 89.3184 469.084 89.7026 469.826C90.4358 471.242 90.5074 471.69 90.0314 471.885C89.5392 472.086 88.4431 471.186 87.5854 469.877C87.1313 469.184 87.1947 469.177 86.1016 470.029L85.3795 470.591L85.9 471.344C86.5162 472.236 86.755 472.48 87.8135 473.297C89.6774 474.736 91.2144 474.767 92.3288 473.389C93.2155 472.293 93.1658 471.363 92.1085 469.272C91.7377 468.538 91.5104 467.906 91.568 467.768C91.8534 467.088 92.824 467.521 93.8183 468.772C94.2698 469.34 94.4761 469.513 94.6092 469.436C94.9752 469.224 95.982 468.413 96.0341 468.289C96.1136 468.1 95.1613 466.915 94.3741 466.223C93.6398 465.579 92.3433 464.965 91.6911 464.953ZM106.235 471.524C106.164 471.599 105.91 472.088 105.669 472.611L105.232 473.561L106.77 474.284C107.616 474.682 108.328 475.055 108.352 475.114C108.375 475.172 107.483 477.13 106.369 479.464C105.255 481.798 104.365 483.761 104.392 483.826C104.419 483.892 104.968 484.193 105.612 484.496L106.784 485.048L108.333 481.791C109.185 479.999 110.133 478.034 110.44 477.424L110.999 476.315L112.595 477.085L114.19 477.855L114.714 476.834C115.002 476.272 115.222 475.774 115.203 475.726C115.183 475.679 113.478 474.844 111.412 473.871C109.347 472.898 107.366 471.941 107.01 471.744C106.548 471.489 106.326 471.426 106.235 471.524ZM135.361 485.216C135.07 485.26 134.714 485.42 134.569 485.573C134.196 485.964 133.957 486.591 134.149 486.671C134.302 486.735 137.024 486.977 137.149 486.938C137.335 486.88 137.222 486.236 136.963 485.877C136.575 485.341 136.027 485.115 135.361 485.216ZM82.4093 463.255C81.9694 463.469 81.684 463.854 81.7158 464.191C81.7433 464.481 82.4796 465.479 82.9575 465.874C83.1804 466.059 83.285 466.017 83.8166 465.534C84.1495 465.231 84.4521 464.913 84.4893 464.826C84.5845 464.604 83.8466 463.771 83.234 463.409C82.825 463.168 82.6545 463.136 82.4093 463.255ZM117.083 479.062C115.19 478.697 113.398 479.507 112.415 481.172C111.172 483.279 111.265 485.722 112.644 487.197C113.062 487.645 113.41 487.865 114.27 488.229C115.252 488.643 115.471 488.684 116.408 488.627C118.311 488.512 119.465 487.533 120.295 485.329C120.702 484.25 120.743 484.001 120.671 483.048C120.52 481.026 119.102 479.452 117.083 479.062ZM116.272 481.321C115.603 481.385 115.136 481.769 114.7 482.614C114.168 483.645 114.059 484.522 114.369 485.28C114.691 486.067 115.497 486.459 116.29 486.212C117.527 485.826 118.461 483.462 117.872 482.206C117.666 481.765 116.775 481.272 116.272 481.321Z" fill="#201446"/>
<path fill-rule="evenodd" clip-rule="evenodd" d="M173.394 328.255C174.356 328.684 175.947 329.351 176.928 329.737C177.909 330.123 177.121 329.771 175.177 328.956C173.234 328.141 172.431 327.825 173.394 328.255ZM169.807 326.899C170.096 327.052 170.587 327.258 170.899 327.357C171.211 327.456 170.974 327.331 170.373 327.079C169.773 326.827 169.518 326.746 169.807 326.899ZM179.316 330.887C179.605 331.041 180.097 331.247 180.408 331.346C180.72 331.445 180.484 331.319 179.883 331.067C179.282 330.815 179.027 330.734 179.316 330.887ZM154.605 323.061C153.822 322.999 154.212 323.168 155.117 323.282C155.528 323.334 155.697 323.316 155.512 323.24C155.335 323.167 154.927 323.086 154.605 323.061ZM151.238 322.621C150.795 322.587 150.488 322.59 150.556 322.626C150.624 322.662 151.073 322.727 151.553 322.771C152.033 322.815 152.34 322.813 152.235 322.766C152.13 322.719 151.681 322.654 151.238 322.621ZM196.149 341.465C196.515 341.782 196.873 342.062 196.946 342.087C197.157 342.162 196.349 341.443 195.896 341.154C195.669 341.009 195.783 341.149 196.149 341.465ZM147.853 322.293C147.141 322.245 146.57 322.238 146.586 322.277C146.602 322.315 147.272 322.39 148.075 322.443C148.878 322.496 149.448 322.504 149.342 322.459C149.235 322.415 148.566 322.34 147.853 322.293ZM198.817 343.726C199.417 344.261 199.94 344.686 199.979 344.671C200.062 344.637 198.051 342.861 197.857 342.796C197.784 342.772 198.216 343.19 198.817 343.726ZM169.046 331.415C168.53 331.252 168.466 331.267 168.34 331.584C167.954 332.558 164.256 343.35 164.289 343.408C164.31 343.445 164.92 343.685 165.643 343.941L166.959 344.408L167.496 343.046C167.791 342.297 168.862 339.601 169.877 337.056L171.722 332.427L170.667 332.011C170.087 331.782 169.357 331.514 169.046 331.415ZM177.998 336.139C177.769 336.571 176.922 338.246 176.117 339.862C175.311 341.477 174.281 343.524 173.829 344.41C173.376 345.297 172.917 346.236 172.807 346.497L172.608 346.971L173.861 347.606C174.551 347.954 175.149 348.226 175.192 348.208C175.265 348.178 176.953 345.147 179.748 340.025C180.468 338.706 181.148 337.485 181.26 337.311C181.485 336.961 181.638 337.076 179.237 335.793L178.415 335.353L177.998 336.139ZM157.29 328.189C154.337 327.609 149.437 326.915 149.374 327.066C149.364 327.089 149.151 329.151 148.901 331.649C148.021 340.407 148.054 339.904 148.364 339.932C150.067 340.085 154.61 340.811 155.988 341.15L156.585 341.297L156.755 340.673C156.848 340.329 157.474 337.524 158.145 334.439C158.816 331.355 159.383 328.788 159.404 328.734C159.456 328.608 159.548 328.632 157.29 328.189ZM141.688 322.047C141.166 322.043 140.753 322.07 140.768 322.107C140.795 322.173 142.646 322.231 142.801 322.171C142.982 322.101 142.566 322.055 141.688 322.047ZM202.707 347.297C202.773 347.449 204.111 348.729 204.177 348.702C204.214 348.687 203.93 348.364 203.544 347.984C202.883 347.332 202.634 347.128 202.707 347.297ZM189.192 342.208C189.087 342.352 188.009 343.856 186.795 345.549C185.581 347.243 184.028 349.406 183.343 350.357C182.659 351.308 182.056 352.187 182.004 352.311C181.932 352.483 182.105 352.677 182.749 353.148C185.01 354.8 188.238 357.517 189.902 359.168C190.3 359.564 190.655 359.874 190.691 359.858C190.769 359.822 199.492 350.935 199.616 350.765C199.722 350.619 198.974 349.854 196.909 348C194.317 345.671 192.55 344.243 189.697 342.175C189.433 341.983 189.349 341.989 189.192 342.208ZM144.018 326.684C140.937 326.603 139.741 326.622 139.684 326.753C139.658 326.814 139.679 329.339 139.732 332.364C139.786 335.389 139.83 338.222 139.831 338.659C139.832 339.098 139.917 339.488 140.02 339.531C140.123 339.574 140.764 339.607 141.445 339.604C142.125 339.601 143.354 339.617 144.175 339.64C145.24 339.67 145.683 339.622 145.717 339.473C145.744 339.357 145.893 337.08 146.048 334.411C146.203 331.743 146.375 328.949 146.429 328.204C146.484 327.458 146.468 326.824 146.395 326.795C146.321 326.766 145.252 326.716 144.018 326.684ZM133.581 322.385C133.23 322.431 131.977 322.58 130.798 322.716C129.619 322.852 128.499 323.01 128.309 323.066C127.943 323.175 128.164 323.155 131.061 322.81C132.067 322.691 133.247 322.551 133.685 322.499C134.122 322.447 134.421 322.382 134.35 322.353C134.279 322.325 133.933 322.339 133.581 322.385ZM208.862 354.03C210.81 356.546 211.653 357.642 211.967 358.066C212.166 358.335 212.341 358.524 212.357 358.486C212.41 358.36 208.681 353.516 208.468 353.434C208.415 353.413 208.592 353.682 208.862 354.03ZM201.172 353.283C200.853 353.583 199.112 355.215 197.304 356.908C195.496 358.602 193.639 360.35 193.176 360.793L192.337 361.598L193.211 362.583C193.692 363.124 194.156 363.597 194.243 363.633C194.383 363.692 204.069 355.39 204.008 355.263C203.956 355.154 202.541 353.536 202.158 353.147L201.753 352.737L201.172 353.283ZM124.988 323.597C123.318 323.909 120.515 324.561 120.355 324.676C120.275 324.733 120.694 324.664 121.287 324.524C121.879 324.384 123.2 324.101 124.221 323.895C125.837 323.57 126.227 323.469 126.086 323.412C126.068 323.404 125.574 323.488 124.988 323.597ZM213.486 360.117C213.474 360.148 213.929 360.887 214.498 361.759C215.067 362.632 215.79 363.772 216.105 364.293C216.421 364.814 216.666 365.161 216.651 365.064C216.593 364.698 213.556 359.95 213.486 360.117ZM130.56 327.337C129.743 327.452 129.051 327.602 129.023 327.669C128.995 327.735 129.169 329.081 129.41 330.658C129.65 332.236 130.061 334.976 130.323 336.748C130.584 338.52 130.813 340.072 130.832 340.196C130.86 340.381 130.982 340.402 131.509 340.312C131.863 340.252 132.492 340.163 132.908 340.114C133.323 340.065 133.689 339.954 133.72 339.867C133.838 339.543 132.391 327.341 132.222 327.236C132.125 327.175 131.377 327.221 130.56 327.337ZM208.015 361.422C207.704 361.64 206.256 362.683 204.798 363.741C203.34 364.799 201.258 366.296 200.171 367.068C199.084 367.84 198.182 368.516 198.167 368.57C198.135 368.678 201.183 373.269 201.328 373.33C201.405 373.362 203.598 372.054 211.691 367.151L212.377 366.735L211.812 365.827C210.847 364.275 209.519 362.267 209.04 361.633L208.581 361.026L208.015 361.422ZM117.346 325.425C116.686 325.611 115.948 325.828 115.706 325.907C115.463 325.986 114.76 326.213 114.143 326.411C113.525 326.609 112.803 326.85 112.538 326.947C112.272 327.043 111.405 327.359 110.611 327.648C109.816 327.937 109.142 328.231 109.113 328.301C109.084 328.371 109.732 328.162 110.555 327.836C112.438 327.09 114.738 326.312 116.893 325.693C118.364 325.271 118.708 325.15 118.578 325.099C118.561 325.092 118.006 325.238 117.346 325.425ZM217.717 367C217.83 367.245 218.428 368.413 219.046 369.595C219.664 370.778 220.56 372.639 221.037 373.731C221.514 374.823 221.927 375.661 221.956 375.593C221.985 375.524 221.873 375.2 221.707 374.871C221.542 374.543 221.159 373.71 220.856 373.021C220.553 372.333 220.064 371.294 219.769 370.714C219.473 370.133 219.216 369.615 219.197 369.562C219.136 369.394 217.801 366.969 217.653 366.757C217.575 366.646 217.603 366.755 217.717 367ZM115.016 330.941C112.876 331.662 110.282 332.689 110.277 332.816C110.268 333.067 114.896 344.558 115.026 344.607C115.106 344.637 115.856 344.406 116.693 344.095C117.531 343.783 118.701 343.375 119.293 343.189C119.886 343.003 120.387 342.823 120.405 342.789C120.424 342.755 119.674 340.296 118.739 337.325C117.803 334.354 116.935 331.583 116.81 331.168L116.581 330.413L115.016 330.941ZM108.164 328.586C107.873 328.713 107.651 328.857 107.671 328.906C107.692 328.956 107.988 328.877 108.33 328.731C108.672 328.585 108.894 328.441 108.822 328.411C108.751 328.381 108.455 328.46 108.164 328.586ZM222.184 376.484C222.32 376.83 222.471 377.097 222.521 377.077C222.641 377.028 222.234 375.978 222.068 375.908C221.997 375.878 222.049 376.137 222.184 376.484ZM106.595 329.252C106.255 329.421 105.423 329.803 104.746 330.101C104.069 330.399 103.041 330.886 102.461 331.183C101.882 331.48 101.365 331.739 101.311 331.758C101.221 331.791 98.9355 333.029 98.5209 333.27C98.417 333.331 98.3618 333.392 98.3981 333.408C98.4344 333.423 99.1536 333.062 99.9964 332.605C101.968 331.536 104.153 330.479 106.02 329.691C106.834 329.347 107.436 329.038 107.357 329.005C107.277 328.972 106.934 329.083 106.595 329.252ZM223.119 378.805C223.865 380.688 224.642 382.988 225.262 385.144C225.526 386.065 225.773 386.831 225.809 386.846C225.845 386.862 225.851 386.779 225.821 386.662C225.692 386.16 224.982 383.697 224.941 383.611C224.916 383.559 224.736 383.011 224.54 382.392C224.345 381.774 223.973 380.7 223.715 380.006C223.457 379.312 223.149 378.449 223.031 378.088C222.912 377.726 222.751 377.404 222.671 377.37C222.592 377.337 222.793 377.983 223.119 378.805ZM212.027 380.535L206.102 382.957L206.471 383.909C206.674 384.432 206.904 385.049 206.982 385.28L207.124 385.7L209.133 384.973C210.237 384.573 211.23 384.215 211.338 384.177C211.447 384.14 212.531 383.744 213.748 383.299C214.964 382.853 216.562 382.271 217.298 382.006C218.035 381.741 218.796 381.465 218.99 381.393C219.339 381.264 219.335 381.242 218.715 379.715C218.37 378.864 218.057 378.155 218.02 378.14C217.983 378.125 215.286 379.203 212.027 380.535ZM102.967 336.069C102.178 336.485 101.509 336.882 101.481 336.95C101.411 337.116 107.431 348.079 107.633 348.153C107.831 348.227 109.926 347.078 110.025 346.842C110.066 346.746 109.523 345.515 108.819 344.107C107.434 341.336 104.752 335.994 104.535 335.573C104.417 335.344 104.228 335.404 102.967 336.069ZM96.0266 334.717C94.9564 335.36 92.1682 337.167 91.9565 337.355C91.6695 337.61 92.3255 337.223 93.9775 336.162C94.8388 335.61 95.8593 334.967 96.2452 334.734C96.6313 334.501 96.9149 334.297 96.8759 334.28C96.8367 334.264 96.4545 334.461 96.0266 334.717ZM226.308 389.02C226.385 389.343 226.561 390.114 226.698 390.733C226.835 391.351 226.975 391.869 227.008 391.883C227.106 391.924 226.448 388.933 226.301 388.671C226.227 388.54 226.23 388.697 226.308 389.02ZM220.232 387.58C219.725 387.727 217.465 388.355 215.21 388.974C209.038 390.67 208.777 390.752 208.833 390.966C208.861 391.071 209.02 391.69 209.187 392.342C209.355 392.994 209.526 393.542 209.569 393.56C209.612 393.578 210.289 393.437 211.075 393.248C211.861 393.059 214.618 392.403 217.202 391.791C219.98 391.133 221.927 390.596 221.966 390.477C222.035 390.264 221.37 387.417 221.235 387.351C221.191 387.33 220.74 387.433 220.232 387.58ZM227.187 393.053C227.357 394.009 227.575 394.775 227.516 394.212C227.467 393.74 227.117 392.08 227.062 392.057C227.031 392.043 227.087 392.492 227.187 393.053ZM90.4956 338.367C88.2112 339.988 85.1744 342.359 85.2247 342.482C85.2408 342.521 85.8989 342.032 86.6872 341.396C87.9561 340.372 90.4455 338.507 91.4447 337.833C91.641 337.701 91.7711 337.579 91.734 337.564C91.6968 337.548 91.1396 337.91 90.4956 338.367ZM227.538 394.876C227.574 395.126 227.724 396.149 227.871 397.148C228.018 398.148 228.219 399.79 228.317 400.799C228.416 401.807 228.528 402.619 228.568 402.603C228.718 402.541 227.869 395.73 227.6 394.84L227.473 394.42L227.538 394.876ZM91.8712 343.011C91.5883 343.211 90.9826 343.669 90.5255 344.028L89.6943 344.681L92.9815 348.83C96.868 353.736 97.6352 354.688 97.7438 354.739C97.8506 354.788 99.869 353.227 99.9415 353.038C99.9724 352.958 99.185 351.795 98.1917 350.454C97.1985 349.113 95.5464 346.866 94.5202 345.461C93.4939 344.055 92.594 342.847 92.5201 342.776C92.4462 342.706 92.1542 342.811 91.8712 343.011ZM217.556 398.665C214.427 399.107 211.594 399.516 211.261 399.574L210.656 399.679L210.834 401.077C210.931 401.846 211.023 402.507 211.038 402.545C211.053 402.583 212.542 402.464 214.346 402.281C218.596 401.851 219.13 401.796 220.547 401.65C221.198 401.584 222.067 401.5 222.477 401.465C224.018 401.334 223.942 401.448 223.718 399.602C223.611 398.71 223.46 397.953 223.384 397.92C223.308 397.887 220.686 398.222 217.556 398.665ZM83.91 343.516C83.4466 343.912 83.0798 344.265 83.0946 344.302C83.1094 344.338 83.5162 344.026 83.9986 343.608C84.4809 343.189 84.8479 342.836 84.814 342.822C84.7802 342.807 84.3734 343.12 83.91 343.516ZM228.624 404.267C228.664 404.904 228.726 405.413 228.762 405.398C228.844 405.365 228.699 403.17 228.613 403.134C228.579 403.12 228.584 403.629 228.624 404.267ZM217.685 404.692C214.18 404.927 211.285 405.129 211.253 405.143C211.221 405.156 211.227 405.646 211.266 406.232C211.358 407.608 211.393 410.506 211.319 410.681C211.288 410.756 211.315 410.839 211.379 410.866C211.519 410.924 224.103 411.136 224.235 411.082C224.395 411.017 224.255 404.292 224.093 404.27C224.074 404.268 221.191 404.458 217.685 404.692ZM79.7222 347.422C79.336 347.814 79.0327 348.166 79.0483 348.204C79.0637 348.242 79.3918 347.951 79.7772 347.557C80.1627 347.163 80.466 346.812 80.4512 346.775C80.4364 346.739 80.1083 347.03 79.7222 347.422ZM84.0353 349.628C80.5868 352.905 75.5873 358.596 76.0038 358.771C76.0371 358.785 78.2969 360.549 81.0258 362.691C83.7545 364.833 86.008 366.594 86.0335 366.605C86.0589 366.615 86.3117 366.33 86.5954 365.971C88.2188 363.916 90.9822 360.897 92.9662 359.01C93.4513 358.548 93.8228 358.119 93.7917 358.055C93.7492 357.968 85.7899 349.39 85.1762 348.77C85.1126 348.706 84.601 349.091 84.0353 349.628ZM228.783 409.212C228.781 409.356 228.77 409.829 228.759 410.263C228.747 410.696 228.771 411.037 228.811 411.021C228.901 410.984 228.94 409.013 228.851 408.976C228.816 408.961 228.785 409.068 228.783 409.212ZM153.601 382.56C153.363 382.544 153.516 382.623 154.036 382.784C154.477 382.921 154.872 383.022 154.912 383.008C155.055 382.958 153.963 382.585 153.601 382.56ZM162.577 386.38C163.296 386.945 163.904 387.346 163.853 387.221C163.798 387.088 162.523 386.151 162.261 386.052C162.153 386.012 162.296 386.159 162.577 386.38ZM75.6416 351.762C75.2286 352.231 74.9034 352.647 74.9191 352.685C74.9347 352.723 75.2855 352.37 75.6985 351.901C76.1115 351.431 76.4367 351.016 76.421 350.977C76.4054 350.939 76.0546 351.292 75.6416 351.762ZM228.568 415.481C228.471 416.467 228.426 417.764 228.494 417.626C228.587 417.435 228.721 415.409 228.651 415.252C228.624 415.192 228.587 415.295 228.568 415.481ZM167.287 391.482C167.499 391.936 167.829 392.747 168.021 393.285C168.212 393.822 168.323 394.025 168.267 393.734C168.137 393.063 167.582 391.701 167.198 391.111C167.017 390.832 167.051 390.975 167.287 391.482ZM73.235 354.597C72.9324 354.979 72.6986 355.324 72.7155 355.366C72.7323 355.407 72.9935 355.128 73.2956 354.745C73.5977 354.363 73.8315 354.017 73.815 353.976C73.7986 353.936 73.5375 354.216 73.235 354.597ZM228.325 418.805C228.292 418.874 228.232 419.325 228.193 419.807C228.153 420.289 228.171 420.469 228.231 420.206C228.351 419.683 228.423 418.603 228.325 418.805ZM217.482 416.704C214.043 416.384 211.199 416.133 211.164 416.146C211.079 416.179 210.752 418.52 210.795 418.789C210.826 418.985 213.362 419.4 218.214 420.004C218.846 420.082 220.263 420.271 221.363 420.422C222.463 420.574 223.415 420.676 223.479 420.648C223.641 420.58 223.992 417.473 223.85 417.37C223.787 417.324 220.922 417.024 217.482 416.704ZM69.2461 359.941C68.9629 360.37 68.7463 360.758 68.7647 360.803C68.7832 360.848 69.0292 360.532 69.3114 360.101C69.5936 359.67 69.8102 359.282 69.7929 359.239C69.7755 359.196 69.5294 359.513 69.2461 359.941ZM73.3239 362.129C72.8801 362.761 72.4396 363.391 72.3449 363.528C72.1809 363.767 72.2961 363.861 74.8022 365.523C76.2484 366.482 78.6225 368.064 80.078 369.037C81.5334 370.011 82.7902 370.835 82.8709 370.869C82.9911 370.92 84.5215 368.804 84.548 368.55C84.5522 368.511 84.1015 368.142 83.5464 367.731C81.8566 366.479 75.0264 361.559 74.5642 361.26L74.1307 360.98L73.3239 362.129ZM167.691 402.006C167.405 402.644 167.062 403.35 166.926 403.574L166.681 403.981L166.99 403.615C167.161 403.413 167.505 402.708 167.755 402.046L168.209 400.844L167.691 402.006ZM117.662 382.738C117.601 383.002 117.531 383.482 117.506 383.806C117.463 384.368 117.466 384.373 117.572 383.916C117.633 383.652 117.703 383.172 117.727 382.848C117.77 382.286 117.767 382.281 117.662 382.738ZM67.5733 362.489C67.2768 362.957 67.0496 363.377 67.0681 363.423C67.0867 363.468 67.3437 363.12 67.6391 362.65C67.9346 362.179 68.162 361.759 68.1443 361.716C68.1266 361.672 67.8698 362.02 67.5733 362.489ZM226.649 428.757C226.553 429.093 226.442 429.59 226.401 429.862C226.341 430.263 226.367 430.221 226.54 429.645C226.658 429.254 226.769 428.756 226.788 428.54C226.814 428.248 226.778 428.303 226.649 428.757ZM154.54 399.947C153.945 401.356 153.928 401.422 154.345 400.72C154.599 400.289 154.885 399.612 154.995 399.179C155.165 398.507 155.105 398.608 154.54 399.947ZM62.8172 371.072C62.5652 371.673 62.4844 371.928 62.6373 371.639C62.7904 371.35 62.9966 370.858 63.0955 370.546C63.1944 370.235 63.0691 370.471 62.8172 371.072ZM223.837 438.607C223.585 439.208 223.505 439.463 223.658 439.174C223.811 438.885 224.017 438.393 224.116 438.082C224.215 437.77 224.089 438.006 223.837 438.607ZM214.075 435.276C211.76 434.454 209.314 433.596 208.639 433.368L207.411 432.955L206.332 435.624L205.254 438.293L207.02 439.126C207.991 439.585 210.633 440.784 212.891 441.792L216.996 443.624L218.236 440.667C218.918 439.04 219.48 437.603 219.484 437.474C219.493 437.19 219.655 437.256 214.075 435.276ZM60.7062 375.778C59.8614 377.792 59.5335 378.623 59.9776 377.625C60.4217 376.627 61.113 374.979 61.5137 373.963C61.9144 372.947 61.5511 373.763 60.7062 375.778ZM221.956 443.485C221.126 445.464 220.812 446.263 221.258 445.261C221.704 444.258 222.383 442.639 222.767 441.662C223.151 440.686 222.786 441.506 221.956 443.485ZM146.395 412.171C145.93 412.067 145.903 412.074 146.225 412.218C146.435 412.311 146.886 412.451 147.228 412.528C147.785 412.653 147.803 412.648 147.399 412.481C147.151 412.378 146.699 412.239 146.395 412.171ZM72.6235 382.154C70.6615 381.382 67.9976 380.316 66.7038 379.784L64.3513 378.818L63.9332 379.813C63.3816 381.127 62.0689 385.01 62.1238 385.165C62.1473 385.232 63.3704 385.66 64.8415 386.116C71.3473 388.131 74.3325 389.036 74.3907 389.013C74.425 388.999 74.703 388.223 75.0084 387.29C75.3138 386.356 75.7406 385.17 75.9568 384.655C76.1731 384.139 76.3141 383.681 76.2704 383.637C76.2266 383.593 74.5854 382.925 72.6235 382.154ZM58.8287 380.581C58.5767 381.182 58.4959 381.437 58.6488 381.148C58.8019 380.859 59.0081 380.368 59.1069 380.056C59.2059 379.744 59.0806 379.981 58.8287 380.581ZM219.849 448.117C219.597 448.717 219.516 448.973 219.669 448.684C219.822 448.395 220.028 447.903 220.127 447.591C220.226 447.28 220.101 447.516 219.849 448.117ZM167.52 427.378C166.762 429.184 166.734 429.281 167.214 428.421C167.514 427.883 167.876 427.019 168.049 426.429C168.327 425.483 168.278 425.571 167.52 427.378ZM135.253 414.292C135.133 414.815 135.06 415.895 135.158 415.694C135.192 415.625 135.252 415.174 135.291 414.691C135.33 414.209 135.313 414.029 135.253 414.292ZM71.2683 390.789C69.5096 390.344 63.1854 388.671 61.9069 388.312C61.2634 388.132 61.1816 388.142 61.135 388.408C61.1063 388.571 60.9443 389.237 60.7747 389.888C60.6052 390.539 60.4806 391.161 60.4981 391.271C60.5225 391.426 60.9878 391.575 62.5758 391.937C70.9975 393.856 72.9056 394.286 72.9561 394.274C72.9877 394.266 73.1719 393.659 73.3656 392.923L73.7179 391.586L73.3469 391.404C73.1429 391.303 72.2075 391.027 71.2683 390.789ZM149.949 426.887C149.287 427.148 148.785 427.378 148.833 427.398C148.931 427.439 150.559 426.832 150.979 426.598C151.479 426.319 151.159 426.408 149.949 426.887ZM199.262 448.927L198.434 450.168L198.846 450.476C199.073 450.646 200.549 451.681 202.126 452.777C203.703 453.872 205.884 455.4 206.973 456.171C208.063 456.943 208.985 457.562 209.022 457.547C209.232 457.463 210.891 454.86 210.808 454.744C210.756 454.671 210.166 454.263 209.496 453.836C208.826 453.41 207.906 452.812 207.452 452.508C206.998 452.204 205.234 451.058 203.534 449.96C201.833 448.863 200.363 447.903 200.266 447.826C200.126 447.715 199.927 447.933 199.262 448.927ZM56.1648 389.56C56.0474 389.951 55.9357 390.448 55.9167 390.664C55.8725 391.17 56.1953 390.068 56.3042 389.343C56.3643 388.942 56.3377 388.983 56.1648 389.56ZM215.066 456.555C214.77 457.026 214.543 457.446 214.561 457.489C214.578 457.532 214.835 457.184 215.132 456.716C215.428 456.248 215.655 455.828 215.637 455.782C215.618 455.737 215.361 456.085 215.066 456.555ZM161.52 434.378C160.944 434.717 160.455 435.034 160.435 435.083C160.414 435.132 160.894 434.881 161.5 434.524C162.107 434.168 162.611 433.857 162.621 433.834C162.669 433.721 162.486 433.811 161.52 434.378ZM122.031 418.348C121.865 419.321 121.808 419.868 121.875 419.84C121.962 419.805 122.209 418.152 122.147 418.019C122.123 417.967 122.071 418.115 122.031 418.348ZM55.5875 392.218C55.4355 392.578 55.1923 394.069 55.3339 393.774C55.3837 393.67 55.4915 393.205 55.5738 392.741C55.6559 392.277 55.6622 392.041 55.5875 392.218ZM213.393 459.104C213.111 459.535 212.895 459.923 212.912 459.966C212.929 460.008 213.176 459.692 213.459 459.263C213.742 458.835 213.959 458.447 213.94 458.402C213.922 458.356 213.676 458.672 213.393 459.104ZM71.5527 399.436C71.5073 399.454 69.8072 399.225 67.7744 398.926C62.2003 398.107 59.422 397.726 59.3226 397.766C59.1856 397.822 58.7835 400.717 58.8581 401.11C58.8625 401.134 60.3588 401.308 62.1831 401.497C64.0073 401.686 66.8353 401.98 68.4675 402.151C70.0997 402.321 71.4936 402.439 71.5652 402.413C71.6367 402.387 71.7793 401.74 71.882 400.975C72.0246 399.913 72.0175 399.562 71.852 399.493C71.7328 399.443 71.5981 399.417 71.5527 399.436ZM196.828 452.326C196.59 452.509 195.205 454.416 195.243 454.508C195.283 454.607 198.122 456.993 202.756 460.822C203.929 461.791 204.935 462.612 204.991 462.645C205.048 462.679 205.427 462.302 205.834 461.808C206.708 460.746 207.225 460.049 207.16 460.022C207.135 460.011 204.872 458.28 202.133 456.175C199.393 454.071 197.1 452.327 197.038 452.301C196.975 452.274 196.881 452.286 196.828 452.326ZM156.743 436.326C155.436 436.674 155.318 436.72 155.836 436.68C156.051 436.663 156.272 436.624 156.326 436.592C156.381 436.56 156.799 436.44 157.254 436.324C157.709 436.208 158.029 436.094 157.964 436.072C157.899 436.05 157.349 436.164 156.743 436.326ZM54.4743 398.999C54.3543 399.522 54.2816 400.602 54.3797 400.4C54.4134 400.331 54.473 399.88 54.5122 399.398C54.5516 398.916 54.5344 398.736 54.4743 398.999ZM209.409 464.46C209.107 464.842 208.873 465.188 208.89 465.228C208.906 465.268 209.167 464.989 209.47 464.608C209.773 464.226 210.006 463.88 209.989 463.839C209.973 463.798 209.711 464.077 209.409 464.46ZM54.2262 401.545C54.1331 401.727 53.9438 404.402 54.0264 404.369C54.0651 404.353 54.1402 403.683 54.1933 402.88C54.2462 402.077 54.2612 401.476 54.2262 401.545ZM67.3251 408.477C65.298 408.455 62.5244 408.421 61.1616 408.4C59.7988 408.38 58.6155 408.388 58.532 408.418C58.3697 408.475 58.3545 411.639 58.506 413.88L58.5979 415.24L64.8529 414.825C68.2933 414.597 71.2021 414.383 71.3174 414.349C71.477 414.303 71.5102 414.06 71.4573 413.329C71.4191 412.801 71.3742 411.548 71.3576 410.543C71.3411 409.539 71.2563 408.672 71.1691 408.617C71.0821 408.562 69.3522 408.499 67.3251 408.477ZM207.29 466.979C206.826 467.518 206.38 468.032 206.298 468.123C206.217 468.213 206.202 468.27 206.266 468.248C206.445 468.187 208.111 466.295 208.122 466.139C208.128 466.063 207.753 466.441 207.29 466.979ZM187.871 461.904C187.22 462.472 186.848 462.885 186.895 462.986C186.99 463.191 195 472.602 195.124 472.654C195.282 472.72 197.725 470.535 197.658 470.388C197.623 470.311 196.33 468.884 194.785 467.217C193.24 465.55 191.323 463.481 190.526 462.618C189.729 461.756 189.042 461.036 188.999 461.018C188.957 461 188.449 461.399 187.871 461.904ZM111.021 430.276C110.584 431.527 110.576 431.609 110.892 431.717C111.093 431.785 111.097 431.778 110.929 431.649C110.788 431.539 110.823 431.224 111.078 430.331L111.412 429.156L111.021 430.276ZM143.841 445.701C143.78 445.965 143.71 446.446 143.686 446.769C143.643 447.331 143.646 447.336 143.751 446.879C143.812 446.616 143.882 446.135 143.907 445.811C143.95 445.25 143.947 445.245 143.841 445.701ZM53.8566 408.163C53.7888 408.325 53.7896 410.214 53.8575 410.187C53.895 410.171 53.9312 409.724 53.9378 409.194C53.9495 408.254 53.9288 407.991 53.8566 408.163ZM202.928 471.648C202.542 472.042 202.239 472.393 202.254 472.429C202.268 472.466 202.597 472.174 202.983 471.782C203.369 471.39 203.672 471.039 203.657 471.001C203.641 470.963 203.313 471.254 202.928 471.648ZM183.605 465.415C182.012 466.647 179.041 468.637 177.057 469.8C176.226 470.287 175.5 470.74 175.442 470.807C175.354 470.91 177.128 474.149 180.842 480.668L181.654 482.092L182.309 481.736C183.349 481.172 186.069 479.497 187.623 478.464C189.396 477.285 192.733 474.811 192.816 474.614C192.85 474.533 191.888 473.218 190.679 471.692C189.47 470.165 187.7 467.919 186.745 466.7C185.791 465.48 184.98 464.47 184.945 464.455C184.909 464.44 184.306 464.872 183.605 465.415ZM53.9166 413.785C53.858 413.924 54.0227 416.042 54.0944 416.072C54.1297 416.087 54.1247 415.592 54.0829 414.972C54.0049 413.808 53.9803 413.633 53.9166 413.785ZM198.706 475.597C198.224 476.015 197.857 476.369 197.891 476.383C197.977 476.419 199.644 474.984 199.61 474.903C199.596 474.867 199.189 475.179 198.706 475.597ZM71.603 422.405C71.188 422.496 68.3605 423.044 65.32 423.624L59.7917 424.678L59.8641 425.115C60.068 426.349 60.3863 427.654 60.5126 427.775C60.591 427.85 61.2074 427.786 61.8824 427.633C62.5575 427.48 65.3237 426.859 68.0297 426.253C70.7356 425.647 72.9749 425.143 73.0059 425.133C73.0889 425.105 72.5323 422.292 72.4381 422.264C72.3938 422.25 72.018 422.314 71.603 422.405ZM54.1019 416.586C53.9979 416.833 54.8679 423.581 55.105 424.365L55.2322 424.785L55.1668 424.329C55.131 424.079 54.981 423.055 54.8336 422.054C54.6863 421.053 54.5003 419.536 54.4202 418.682C54.264 417.018 54.1728 416.417 54.1019 416.586ZM196.018 477.809C195.229 478.445 193.917 479.453 193.101 480.049C192.285 480.644 191.45 481.254 191.246 481.404L190.875 481.677L191.264 481.473C192.088 481.041 197.542 476.873 197.48 476.723C197.464 476.684 196.806 477.172 196.018 477.809ZM74.5921 433.103C74.1956 433.243 71.4632 434.208 68.52 435.247C64.1622 436.784 63.1741 437.183 63.1973 437.396C63.213 437.54 63.5489 438.438 63.9439 439.391L64.6622 441.124L70.5888 438.704C73.8485 437.374 76.5255 436.254 76.5376 436.217C76.5497 436.179 76.2792 435.405 75.9363 434.498L75.3131 432.847L74.5921 433.103ZM170.136 473.394C169.842 473.54 169.176 473.844 168.657 474.068L167.713 474.476L170.209 480.414L172.705 486.352L174.388 485.673C175.314 485.299 176.1 484.925 176.135 484.842C176.17 484.758 176.076 484.454 175.927 484.165C175.779 483.876 175.284 482.829 174.83 481.84C174.375 480.85 173.769 479.534 173.484 478.916C173.199 478.297 172.593 476.981 172.138 475.99C171.249 474.056 170.818 473.189 170.728 473.151C170.697 473.138 170.43 473.247 170.136 473.394ZM55.1886 424.993C55.2377 425.465 55.5877 427.125 55.6429 427.148C55.7172 427.179 55.3622 425.187 55.2502 424.944C55.1896 424.812 55.1713 424.827 55.1886 424.993ZM189.193 482.746C188.319 483.315 187.179 484.039 186.66 484.354C186.14 484.67 185.8 484.915 185.904 484.899C186.201 484.852 190.98 481.796 190.845 481.739C190.809 481.724 190.066 482.178 189.193 482.746ZM55.893 428.5C56.0344 429.162 56.2293 429.941 56.3263 430.231L56.5024 430.758L56.3794 430.177C56.0035 428.403 55.7503 427.344 55.6966 427.322C55.6633 427.308 55.7516 427.838 55.893 428.5ZM56.8841 432.542C57.1299 433.504 57.7703 435.634 57.9887 436.217C58.1366 436.611 58.24 436.978 58.2186 437.031C58.1971 437.084 58.2433 437.155 58.3213 437.187C58.3993 437.22 58.2845 436.713 58.0662 436.06C57.8481 435.408 57.5101 434.314 57.3153 433.63C57.1204 432.946 56.9316 432.373 56.8956 432.358C56.8596 432.343 56.8543 432.426 56.8841 432.542ZM182.708 486.6C180.702 487.687 178.892 488.567 176.868 489.44C175.964 489.829 175.28 490.172 175.348 490.2C175.417 490.229 176.113 489.959 176.895 489.602C177.678 489.245 178.513 488.864 178.751 488.756C178.99 488.647 179.66 488.316 180.241 488.02C180.822 487.724 181.34 487.466 181.393 487.446C181.484 487.414 183.769 486.175 184.184 485.935C184.288 485.874 184.343 485.812 184.307 485.797C184.27 485.782 183.551 486.143 182.708 486.6ZM58.7063 438.331C59.3229 440.233 59.9426 441.872 60.0302 441.833C60.0776 441.811 59.7225 440.779 59.2412 439.538C58.7599 438.297 58.5192 437.754 58.7063 438.331ZM83.8298 450.975C84.5171 451.67 85.1464 452.603 85.4823 453.424C85.6092 453.734 85.7388 453.927 85.7703 453.852C85.9246 453.484 83.9607 450.647 83.4043 450.434C83.3072 450.397 83.4986 450.641 83.8298 450.975ZM77.5912 449.626C76.6835 450.014 75.6412 450.647 75.7999 450.714C75.8298 450.727 76.1163 450.562 76.4366 450.348C76.757 450.134 77.4257 449.802 77.9226 449.611C78.4196 449.42 78.7824 449.245 78.7286 449.222C78.6749 449.2 78.1631 449.381 77.5912 449.626ZM154.428 482.005C152.303 482.366 151.194 483.434 151.28 485.038C151.316 485.712 151.753 486.802 152.035 486.919C152.121 486.955 152.062 486.806 151.904 486.587C151.46 485.973 151.293 484.901 151.525 484.155C151.876 483.024 153.01 482.298 154.792 482.064C155.271 482.001 155.605 481.925 155.535 481.895C155.464 481.864 154.967 481.914 154.428 482.005ZM60.1607 442.132C60.0911 442.298 60.5364 443.332 60.6564 443.283C60.7061 443.263 60.6272 442.966 60.481 442.624C60.3347 442.282 60.1907 442.061 60.1607 442.132ZM174.375 490.474C174.033 490.62 173.811 490.764 173.882 490.794C174.048 490.864 175.083 490.418 175.034 490.298C175.013 490.249 174.717 490.328 174.375 490.474ZM60.7489 443.612C60.7203 443.681 60.8362 444.012 61.0064 444.349C61.1768 444.687 61.5582 445.52 61.8542 446.201C62.1502 446.883 62.6356 447.914 62.9329 448.493C63.2301 449.073 63.4891 449.59 63.5084 449.643C63.5692 449.811 64.9039 452.236 65.0523 452.448C65.2908 452.789 64.8355 451.861 63.6591 449.61C63.0412 448.427 62.1454 446.566 61.6683 445.474C61.1914 444.382 60.7776 443.544 60.7489 443.612ZM171.475 491.628C170.337 492.063 168.4 492.723 167.171 493.093C164.854 493.792 163.841 494.128 164.26 494.057C164.515 494.015 167.18 493.268 167.343 493.194C167.394 493.17 167.943 492.99 168.563 492.793C169.183 492.597 170.164 492.261 170.743 492.046C171.323 491.832 172.206 491.509 172.707 491.329C173.207 491.148 173.601 490.963 173.581 490.919C173.561 490.874 172.613 491.194 171.475 491.628ZM79.0514 451.986C78.5778 452.152 78.0037 452.438 77.7754 452.622L77.3604 452.955L77.8158 452.693C78.4173 452.347 79.2779 452.001 79.7885 451.901C80.015 451.856 80.1355 451.789 80.0563 451.752C79.9771 451.714 79.525 451.819 79.0514 451.986ZM82.8435 453.494C83.15 453.942 83.4895 454.645 83.5982 455.057C83.7069 455.469 83.8171 455.873 83.8432 455.955C83.8814 456.075 86.1123 455.558 86.1724 455.415C86.2141 455.316 86.0321 455.351 85.0228 455.639L83.9515 455.943L83.801 455.3C83.5937 454.414 82.7443 452.871 82.3791 452.718C82.3281 452.696 82.5371 453.046 82.8435 453.494ZM156.485 486.025C156.738 486.164 157.172 486.346 157.448 486.429C157.725 486.513 157.518 486.399 156.988 486.177C156.458 485.954 156.231 485.886 156.485 486.025ZM158.222 487.091C158.391 487.325 158.576 487.895 158.633 488.359C158.75 489.3 158.85 489.329 158.781 488.402C158.735 487.784 158.331 486.84 158.066 486.73C157.983 486.695 158.053 486.858 158.222 487.091ZM76.6839 453.573C76.022 454.277 75.6818 454.999 75.6809 455.704C75.6799 456.436 76.0622 457.45 76.5415 457.987C76.7731 458.246 76.8857 458.34 76.7919 458.196C75.4982 456.21 75.4945 455.016 76.7779 453.666C77.0717 453.357 77.2994 453.073 77.2839 453.035C77.2685 452.997 76.9983 453.239 76.6839 453.573ZM73.8061 452.706C73.6497 452.955 73.4317 453.393 73.3216 453.679C73.1905 454.02 73.2979 453.886 73.6321 453.292C74.171 452.334 74.2885 451.938 73.8061 452.706ZM145.311 483.111C144.698 483.142 144.183 483.199 144.167 483.238C144.15 483.277 144.538 483.285 145.028 483.256C145.518 483.227 146.091 483.199 146.301 483.194C146.511 483.188 146.625 483.155 146.554 483.12C146.483 483.085 145.924 483.081 145.311 483.111ZM148.778 484.522C149.28 485.347 149.371 485.656 149.489 486.948C149.604 488.195 149.732 488.432 149.648 487.241C149.558 485.974 149.331 485.067 148.961 484.498C148.469 483.742 148.315 483.762 148.778 484.522ZM142.841 483.465C142.254 483.606 141.71 483.763 141.634 483.815C141.5 483.905 141.567 486.202 141.702 486.147C141.738 486.132 141.734 485.625 141.692 485.018L141.615 483.917L142.434 483.69C142.884 483.565 143.436 483.425 143.661 483.377C143.885 483.331 144.033 483.273 143.989 483.251C143.945 483.228 143.429 483.325 142.841 483.465ZM156.063 488.47C156.458 488.994 155.821 489.439 154.514 489.552C154.126 489.586 153.853 489.636 153.909 489.663C154.066 489.74 154.952 489.655 155.554 489.504C155.889 489.42 156.15 489.254 156.224 489.077C156.353 488.771 156.257 488.385 156.03 488.298C155.955 488.269 155.97 488.346 156.063 488.47ZM88.7175 461.687C88.9006 462.192 89.0209 462.675 88.985 462.761C88.9492 462.846 88.9702 462.896 89.0319 462.87C89.2183 462.794 88.9827 461.711 88.674 461.225C88.4364 460.851 88.4442 460.933 88.7175 461.687ZM157.913 490.449C157.486 490.873 156.161 491.414 155.256 491.535C154.472 491.64 154.252 491.761 154.946 491.705C155.821 491.635 157.15 491.174 157.729 490.74C158.053 490.496 158.302 490.257 158.282 490.208C158.262 490.159 158.096 490.268 157.913 490.449ZM99.7169 465.996C99.6945 466.049 100.016 466.216 100.431 466.366C101.747 466.844 101.896 466.843 100.81 466.364C100.231 466.109 99.7391 465.944 99.7169 465.996ZM146.753 486.14C146.85 486.43 147.011 487.858 147.111 489.313C147.211 490.768 147.313 491.92 147.337 491.873C147.482 491.59 147.04 486.646 146.827 486.171L146.577 485.613L146.753 486.14ZM149.639 488.223C149.564 488.373 149.696 490.33 149.778 490.296C149.819 490.28 149.815 489.785 149.769 489.196C149.724 488.608 149.665 488.17 149.639 488.223ZM137.47 483.531C138.015 483.818 138.56 484.139 138.682 484.245C138.803 484.352 138.765 484.281 138.597 484.088C138.407 483.871 137.946 483.6 137.385 483.374L136.479 483.011L137.47 483.531ZM135.268 482.983C134.535 483.031 133.1 483.511 133.362 483.621C133.429 483.65 133.605 483.588 133.751 483.484C134.071 483.258 135.157 483.061 135.899 483.094C136.193 483.107 136.346 483.076 136.239 483.025C136.131 482.974 135.694 482.955 135.268 482.983ZM73.3899 457.271C73.7032 458.094 74.8444 459.761 75.5465 460.422C75.8853 460.74 76.1971 460.987 76.2396 460.97C76.2819 460.952 76.0805 460.729 75.7918 460.473C75.0607 459.824 74.0544 458.431 73.6744 457.54C73.3019 456.667 73.0794 456.457 73.3899 457.271ZM126.236 479.197C126.174 479.337 126.069 479.803 126.003 480.232C125.937 480.662 125.933 480.899 125.996 480.759C126.058 480.618 126.163 480.152 126.229 479.723C126.295 479.294 126.298 479.057 126.236 479.197ZM139.133 484.891C139.253 485.154 139.432 485.593 139.531 485.865L139.711 486.36L139.611 485.833C139.555 485.543 139.376 485.104 139.212 484.858L138.914 484.411L139.133 484.891ZM66.0852 454.204C66.1638 454.493 67.7905 457.088 67.8317 456.99C67.8456 456.956 67.5824 456.49 67.2469 455.952C66.9114 455.415 66.4965 454.742 66.3251 454.457C66.1537 454.172 66.0458 454.058 66.0852 454.204ZM91.6107 464.961C91.1174 464.967 89.9661 465.466 89.8601 465.718C89.8247 465.803 90.0326 465.718 90.3222 465.53C91.1698 464.978 91.9477 464.993 93.1556 465.584C93.7109 465.856 94.069 465.985 93.9511 465.87C93.6051 465.536 92.1087 464.954 91.6107 464.961ZM161.855 494.568C161.574 494.645 160.444 494.901 159.345 495.138C158.245 495.376 157.159 495.615 156.93 495.671L156.514 495.773L156.952 495.718C158.42 495.537 162.679 494.552 162.427 494.453C162.393 494.44 162.136 494.492 161.855 494.568ZM144.253 487.014C144.183 487.153 144.523 492.233 144.6 492.201C144.637 492.186 144.585 490.992 144.483 489.549C144.382 488.105 144.278 486.965 144.253 487.014ZM95.0553 467.023C95.0412 467.057 95.2082 467.296 95.4267 467.554C95.6452 467.813 95.8353 468.097 95.8495 468.186C95.8635 468.275 95.6125 468.544 95.2917 468.785C94.9708 469.026 94.7374 469.235 94.7727 469.25C94.8623 469.287 95.9694 468.446 96.0344 468.291C96.0637 468.222 95.8827 467.903 95.6325 467.583C95.1599 466.979 95.0986 466.92 95.0553 467.023ZM110.962 473.773C112.233 474.432 114.442 475.42 114.388 475.304C114.369 475.265 113.326 474.767 112.069 474.197C110.486 473.48 110.146 473.349 110.962 473.773ZM131.368 482.884C131.394 482.949 131.11 483.238 130.735 483.525C130.36 483.812 130.083 484.059 130.118 484.074C130.191 484.105 131.533 483.095 131.585 482.971C131.604 482.927 131.551 482.862 131.469 482.827C131.387 482.793 131.341 482.818 131.368 482.884ZM139.657 487.46C139.638 488.025 139.654 488.474 139.693 488.459C139.787 488.421 139.851 486.657 139.762 486.532C139.724 486.478 139.676 486.896 139.657 487.46ZM135.625 485.019C135.012 485.011 134.302 485.5 134.049 486.103C133.794 486.711 133.834 486.899 134.202 486.837C134.398 486.804 134.4 486.781 134.214 486.701C134.052 486.631 134.034 486.5 134.148 486.228C134.399 485.63 134.792 485.303 135.362 485.216C136.37 485.064 137.213 485.721 137.226 486.67C137.23 486.98 137.267 487.056 137.337 486.898C137.394 486.768 137.327 486.383 137.188 486.042C136.984 485.544 136.836 485.382 136.436 485.222C136.162 485.113 135.797 485.021 135.625 485.019ZM132.58 484.162C132.423 484.325 132.185 484.65 132.051 484.885C131.835 485.261 131.856 485.252 132.226 484.807C132.456 484.53 132.731 484.22 132.836 484.119C132.941 484.017 132.99 483.919 132.946 483.9C132.901 483.881 132.736 483.999 132.58 484.162ZM128.547 482.395C128.178 482.608 127.148 483.433 127.216 483.461C127.254 483.477 127.594 483.25 127.972 482.957C128.408 482.619 128.771 482.446 128.964 482.487C129.265 482.549 129.265 482.548 129.002 482.418C128.856 482.345 128.651 482.335 128.547 482.395ZM86.9046 465.971C86.4684 466.384 86.1234 466.751 86.138 466.787C86.1528 466.823 86.5216 466.514 86.9578 466.101C87.394 465.689 87.739 465.322 87.7244 465.286C87.7096 465.25 87.3408 465.558 86.9046 465.971ZM67.9498 457.233C67.9651 457.331 68.1974 457.726 68.4661 458.113C69.1453 459.09 69.192 459.151 69.2171 459.091C69.2293 459.062 68.9429 458.592 68.5805 458.047C68.2183 457.503 67.9345 457.136 67.9498 457.233ZM84.1823 464.214C84.3887 464.465 84.5322 464.73 84.5013 464.804C84.4082 465.026 83.3341 466.031 83.1467 466.071C83.0293 466.096 83.0212 466.13 83.1222 466.174C83.2781 466.242 84.4828 465.208 84.615 464.893C84.6905 464.713 84.182 463.897 83.9378 463.806C83.8659 463.779 83.976 463.962 84.1823 464.214ZM123.37 480.639C123.32 480.743 123.212 481.208 123.13 481.672C123.048 482.136 123.041 482.372 123.116 482.195C123.268 481.835 123.511 480.344 123.37 480.639ZM93.2711 468.064C93.291 468.1 93.5603 468.449 93.8697 468.842C94.2822 469.364 94.4744 469.523 94.5898 469.435C94.6763 469.368 94.6856 469.336 94.6104 469.362C94.5352 469.388 94.2434 469.113 93.9618 468.75C93.5466 468.215 93.1147 467.786 93.2711 468.064ZM101.731 471.851C102.708 472.748 102.951 473.288 102.899 474.448C102.886 474.746 102.922 474.888 102.98 474.764C103.382 473.903 102.402 471.827 101.408 471.434C101.281 471.383 101.427 471.571 101.731 471.851ZM114.27 477.416C114.171 477.652 114.087 477.626 112.527 476.889L110.887 476.114L110.619 476.818L110.351 477.521L110.664 476.912L110.978 476.303L112.607 477.08L114.236 477.857L114.369 477.539C114.443 477.365 114.473 477.21 114.438 477.195C114.403 477.181 114.327 477.28 114.27 477.416ZM92.1151 469.595C92.5019 470.492 92.8401 471.439 92.8666 471.699C92.8931 471.96 92.9274 472.042 92.943 471.882C92.9964 471.334 92.7507 470.591 92.0817 469.278L91.4118 467.964L92.1151 469.595ZM141.834 489.179C141.807 489.232 141.838 490.042 141.901 490.98C142.015 492.653 142.024 492.685 142.401 492.674C142.612 492.667 142.77 492.627 142.752 492.584C142.735 492.541 142.59 492.521 142.43 492.54C142.173 492.57 142.125 492.374 142.011 490.829C141.94 489.869 141.86 489.127 141.834 489.179ZM81.6099 464.201C81.5892 464.445 82.5486 465.785 82.8262 465.9C82.9356 465.945 82.7848 465.717 82.4911 465.394C82.1973 465.071 81.8828 464.626 81.7921 464.404C81.7014 464.182 81.6193 464.091 81.6099 464.201ZM118.473 479.73C118.91 480.025 119.361 480.382 119.476 480.523C119.591 480.665 119.73 480.762 119.786 480.739C119.996 480.653 118.459 479.457 117.893 479.267C117.776 479.227 118.037 479.436 118.473 479.73ZM79.1832 463.432C79.0453 463.761 79.5557 465.07 80.1247 465.846C80.4647 466.31 80.8051 466.715 80.8812 466.745C80.9573 466.775 80.7889 466.509 80.507 466.153C79.7929 465.251 79.5302 464.744 79.375 463.966C79.3014 463.596 79.215 463.356 79.1832 463.432ZM88.9582 467.509C88.8381 467.795 89.1947 468.9 89.7112 469.842C90.02 470.405 90.3125 471.029 90.3614 471.229C90.4101 471.429 90.4612 471.495 90.4748 471.376C90.4884 471.257 90.2262 470.609 89.8922 469.936C89.5582 469.262 89.2224 468.414 89.1463 468.051C89.0701 467.688 88.9854 467.444 88.9582 467.509ZM139.588 488.75C139.559 488.82 139.044 488.831 138.445 488.775C137.846 488.719 137.37 488.709 137.388 488.752C137.429 488.852 139.358 489.011 139.577 488.932C139.669 488.899 139.72 488.816 139.692 488.747C139.664 488.679 139.617 488.68 139.588 488.75ZM126.187 484.167C125.727 484.512 125.312 484.741 125.265 484.674C125.218 484.608 125.155 484.611 125.125 484.682C125.095 484.753 125.109 484.864 125.156 484.93C125.24 485.048 127.109 483.75 127.052 483.612C127.036 483.572 126.647 483.822 126.187 484.167ZM115.031 479.15C114.291 479.342 113.308 479.962 112.913 480.485C112.794 480.643 113.024 480.489 113.424 480.143C114.111 479.551 114.562 479.333 115.521 479.131C115.746 479.084 115.891 479.026 115.845 479.002C115.799 478.979 115.433 479.045 115.031 479.15ZM120.206 481.6C120.383 482.051 120.553 482.731 120.586 483.111C120.618 483.492 120.672 483.744 120.706 483.671C120.839 483.391 120.496 481.786 120.199 481.296C119.91 480.82 119.911 480.843 120.206 481.6ZM128.081 485.449C127.569 485.795 127.159 486.144 127.168 486.225C127.178 486.306 127.278 486.274 127.39 486.154C127.501 486.034 127.94 485.697 128.364 485.403C128.788 485.111 129.107 484.859 129.073 484.845C129.039 484.83 128.592 485.102 128.081 485.449ZM70.5123 460.999C70.7616 461.472 74.1324 465.771 74.2246 465.733C74.2618 465.718 73.9687 465.306 73.5734 464.818C73.178 464.329 72.4598 463.411 71.9776 462.778C70.4318 460.748 70.2879 460.573 70.5123 460.999ZM100.126 473.394C100.419 473.759 100.409 474.001 100.06 475.018C99.8487 475.632 99.8582 475.623 100.195 474.879C100.511 474.183 100.534 474.022 100.375 473.632C100.274 473.386 100.116 473.155 100.023 473.12C99.9302 473.084 99.9766 473.207 100.126 473.394ZM153.316 496.193C152.608 496.296 151.196 496.466 150.179 496.571C149.162 496.676 148.341 496.791 148.356 496.827C148.389 496.909 153.776 496.317 154.327 496.172C155.011 495.991 154.658 495.998 153.316 496.193ZM135.191 488.514C133.655 488.404 133.459 488.537 133.939 489.371C134.183 489.795 134.369 489.937 135.056 490.223C135.509 490.412 135.981 490.549 136.106 490.528C136.242 490.505 135.973 490.372 135.431 490.194C134.72 489.961 134.459 489.812 134.201 489.492C133.904 489.124 133.781 488.678 133.957 488.606C133.995 488.59 134.68 488.621 135.48 488.674C136.281 488.726 136.848 488.734 136.742 488.69C136.635 488.647 135.938 488.567 135.191 488.514ZM107.109 478.05C106.797 478.792 106.691 479.105 106.873 478.745C107.054 478.384 107.309 477.777 107.439 477.395C107.569 477.013 107.42 477.308 107.109 478.05ZM138.229 490.244C138.113 490.304 137.67 490.368 137.245 490.385C136.82 490.403 136.485 490.45 136.502 490.49C136.534 490.569 137.507 490.515 138.343 490.388C138.65 490.341 138.774 490.274 138.649 490.222C138.534 490.173 138.345 490.183 138.229 490.244ZM116.393 481.181C116.228 481.179 115.92 481.267 115.708 481.375L115.325 481.572L115.797 481.412C116.426 481.2 117.403 481.479 117.731 481.965C117.862 482.16 118.005 482.552 118.048 482.836C118.091 483.119 118.16 483.272 118.2 483.176C118.241 483.079 118.144 482.682 117.985 482.292C117.745 481.706 117.609 481.549 117.195 481.384C116.92 481.273 116.559 481.182 116.393 481.181ZM87.0084 469.359C86.9036 469.417 86.6879 469.58 86.5291 469.721L86.2401 469.978L86.6377 469.767C86.8562 469.65 87.053 469.517 87.0748 469.469C87.0966 469.421 87.3214 469.697 87.5743 470.082C88.1312 470.93 89.1439 471.907 89.5991 472.036C89.7823 472.088 90.0787 472.022 90.2578 471.889L90.5836 471.648L90.2002 471.848C89.8697 472.021 89.7534 472.007 89.355 471.748C88.7736 471.37 87.8427 470.373 87.4776 469.739C87.2652 469.37 87.1533 469.279 87.0084 469.359ZM81.0635 466.876C81.0316 466.952 82.353 468.125 82.5439 468.19C82.6208 468.216 82.4376 468.013 82.137 467.739C81.3071 466.982 81.0915 466.809 81.0635 466.876ZM127.611 486.832C127.749 487.08 128.187 487.947 128.585 488.758C128.983 489.569 129.346 490.248 129.392 490.268C129.439 490.287 129.443 490.23 129.402 490.141C128.654 488.526 128.131 487.513 127.785 487.005C127.551 486.661 127.473 486.583 127.611 486.832ZM138.74 491.704C138.74 492.354 138.706 492.37 137.154 492.495C136.62 492.538 136.195 492.603 136.21 492.639C136.25 492.737 137.996 492.595 138.478 492.454C138.865 492.342 138.896 492.298 138.898 491.855C138.899 491.593 138.864 491.328 138.82 491.266C138.777 491.205 138.741 491.402 138.74 491.704ZM131.252 489.008C131.325 489.612 131.618 490.424 131.878 490.74C131.988 490.874 131.921 490.619 131.73 490.174C131.539 489.729 131.34 489.177 131.289 488.947C131.197 488.54 131.196 488.541 131.252 489.008ZM85.8224 470.246C85.4608 470.58 85.472 470.808 85.8742 471.308C86.1356 471.633 86.1715 471.654 86.0394 471.405C85.9467 471.23 85.8097 471.006 85.735 470.908C85.6271 470.767 85.6627 470.66 85.9081 470.387C86.2736 469.981 86.2145 469.884 85.8224 470.246ZM92.0396 473.509C91.8347 473.733 91.3902 474.021 91.0516 474.149C90.2731 474.444 90.3719 474.507 91.1848 474.235C91.5207 474.123 91.948 473.855 92.1343 473.641C92.5923 473.114 92.5084 472.998 92.0396 473.509ZM125.209 487.465C125.446 487.819 125.964 488.846 126.362 489.747L127.086 491.387L127.922 491.541C128.381 491.625 128.644 491.642 128.505 491.577C128.365 491.512 127.998 491.416 127.687 491.363L127.123 491.268L126.554 489.922C125.931 488.449 125.138 486.972 124.919 486.88C124.843 486.848 124.973 487.111 125.209 487.465ZM105.873 480.63C105.606 481.266 105.512 481.551 105.664 481.265C105.816 480.978 106.035 480.457 106.15 480.108C106.265 479.759 106.14 479.994 105.873 480.63ZM114.119 483.917C113.948 484.298 114.136 485.391 114.432 485.746C114.582 485.925 114.946 486.173 115.24 486.296C115.691 486.485 115.888 486.475 116.484 486.231C116.931 486.048 117.235 485.828 117.308 485.633C117.406 485.372 117.379 485.38 117.136 485.681C116.405 486.586 114.893 486.419 114.402 485.378C114.268 485.093 114.173 484.594 114.191 484.27C114.21 483.945 114.177 483.786 114.119 483.917ZM132.895 491.738C133.17 491.972 134.458 492.594 134.392 492.461C134.373 492.423 133.966 492.192 133.487 491.947C132.981 491.688 132.733 491.6 132.895 491.738ZM78.496 470.475C78.4588 470.564 79.8677 471.942 79.9578 471.905C79.9977 471.889 79.7754 471.629 79.4636 471.328C79.1519 471.027 78.8127 470.697 78.7099 470.596C78.6071 470.494 78.5108 470.44 78.496 470.475ZM140.886 497.005C139.921 497.003 139.558 497.062 140.157 497.123C140.666 497.174 142.077 497.123 141.921 497.059C141.85 497.03 141.384 497.005 140.886 497.005ZM104.74 482.913C104.378 483.715 104.354 483.846 104.55 483.926C104.703 483.989 104.74 483.966 104.663 483.856C104.601 483.767 104.687 483.311 104.853 482.843L105.156 481.991L104.74 482.913ZM111.597 485.19C111.637 485.609 112.285 486.896 112.425 486.832C112.484 486.804 112.458 486.717 112.367 486.637C112.276 486.557 112.059 486.127 111.884 485.681C111.709 485.235 111.58 485.014 111.597 485.19ZM107.038 484.21L106.771 484.846L105.885 484.527L104.999 484.208L105.92 484.624L106.841 485.04L107.137 484.334C107.301 483.945 107.405 483.615 107.37 483.6C107.334 483.585 107.185 483.859 107.038 484.21ZM82.7075 474.517C82.7627 474.68 84.3461 476.072 84.4347 476.036C84.4743 476.019 84.1673 475.711 83.7523 475.35C83.3374 474.989 82.9236 474.627 82.8328 474.547C82.742 474.466 82.6855 474.453 82.7075 474.517ZM134.897 496.76C134.305 496.721 133.834 496.722 133.85 496.762C133.882 496.839 135.972 497.008 136.125 496.945C136.293 496.877 135.984 496.83 134.897 496.76ZM86.0117 477.429C86.223 477.626 86.5816 477.906 86.8086 478.051C87.0356 478.196 86.9219 478.056 86.556 477.74C85.8167 477.1 85.4097 476.868 86.0117 477.429ZM131.08 496.426C130.559 496.389 130.442 496.408 130.749 496.48C131.309 496.609 132.365 496.672 132.082 496.559C131.975 496.516 131.524 496.456 131.08 496.426ZM88.9651 479.742C89.2412 479.975 89.5845 480.211 89.7281 480.265C89.8716 480.319 89.7337 480.161 89.4215 479.915C88.6815 479.33 88.3148 479.191 88.9651 479.742ZM127.52 495.905C127.164 495.864 126.985 495.883 127.124 495.948C127.263 496.013 127.671 496.094 128.032 496.127C128.852 496.203 128.401 496.007 127.52 495.905ZM95.7342 484.32C95.9924 484.497 96.3788 484.71 96.5928 484.794C96.8847 484.909 96.8481 484.861 96.4469 484.602C95.7292 484.139 95.1163 483.896 95.7342 484.32ZM119.254 494.176C118.784 494.071 118.759 494.078 119.083 494.225C119.292 494.32 119.715 494.446 120.022 494.506C120.485 494.597 120.514 494.589 120.194 494.458C119.981 494.37 119.558 494.244 119.254 494.176ZM102.271 487.919C102.56 488.072 103.052 488.278 103.364 488.377C103.675 488.476 103.439 488.351 102.838 488.099C102.237 487.847 101.982 487.766 102.271 487.919ZM111.781 491.907C112.07 492.061 112.562 492.267 112.873 492.366C113.185 492.465 112.949 492.339 112.348 492.087C111.747 491.835 111.492 491.754 111.781 491.907ZM105.694 489.508C106.696 489.954 108.316 490.633 109.292 491.017C110.269 491.401 109.449 491.036 107.47 490.206C105.491 489.376 104.692 489.062 105.694 489.508Z" fill="#D1CED9"/>
<circle cx="142.814" cy="409.487" r="87.4019" transform="rotate(43.2793 142.814 409.487)" stroke="#201446" stroke-width="6"/>
<defs>
<linearGradient id="paint0_linear_25_209" x1="401.398" y1="173.636" x2="201.447" y2="186.946" gradientUnits="userSpaceOnUse">
<stop stop-color="#0AC18E"/>
<stop offset="1" stop-color="#23A6D5"/>
</linearGradient>
</defs>
</svg>
